<svg xmlns="http://www.w3.org/2000/svg" xmlns:xlink="http://www.w3.org/1999/xlink" width="514" height="406" viewBox="0 0 514 406">
    <defs>
        <linearGradient id="a" x1="94.223%" x2="6.087%" y1="36.793%" y2="62.897%">
            <stop offset="0%" stop-color="#FF9265"/>
            <stop offset="100%" stop-color="#EF7E4C" stop-opacity="0"/>
        </linearGradient>
        <linearGradient id="b" x1="95.904%" x2="22.393%" y1="28.033%" y2="59.479%">
            <stop offset="0%" stop-color="#8EB5E2"/>
            <stop offset="100%" stop-color="#FFF" stop-opacity="0"/>
            <stop offset="100%" stop-color="#91D2FF" stop-opacity="0"/>
        </linearGradient>
        <linearGradient id="c" x1="0%" y1="50%" y2="50%">
            <stop offset="0%" stop-color="#747A8B"/>
            <stop offset="100%" stop-color="#465272"/>
        </linearGradient>
        <path id="d" d="M0 16.604L32.094.485l48.972 29.117L50.64 46.554z"/>
        <path id="f" d="M18.453 10.666l205.694 118.899a20 20 0 0 1 9.992 17.315v161.981c0 6.628-5.373 12-12 12a12 12 0 0 1-4.105-.724l-2.545-.926-130.766-82.568L8.113 135.34 0 21.314C0 14.522 5.506 9.015 12.298 9.015c2.161 0 4.284.57 6.155 1.651z"/>
    </defs>
    <g fill="none" fill-rule="evenodd">
        <path fill="#CEE1EF" d="M335.858 152.386v114.231c-.519.002-1.133-.108-1.842-.33l-12.114-6.864a3 3 0 0 1-1.521-2.61V143.615l15.477 8.77z"/>
        <path fill="#A1B6CE" d="M335.858 152v114.617a4.42 4.42 0 0 0 1.667-.282l13.27-7.18a3 3 0 0 0 1.571-2.639V143.363l-16.508 8.638z"/>
        <path fill="#CEE1EF" d="M361.168 165.981v114.232c-.52.002-1.133-.109-1.842-.331l-12.114-6.864a3 3 0 0 1-1.521-2.61V157.21l15.477 8.77z"/>
        <path fill="#A1B6CE" d="M361.168 165.596v114.617a4.42 4.42 0 0 0 1.666-.283l13.27-7.18a3 3 0 0 0 1.572-2.638V156.958l-16.508 8.638z"/>
        <path fill="#E8F5FF" d="M363.552 148.667l13.53 7.65a1 1 0 0 1-.02 1.752l-13.954 7.46a4 4 0 0 1-3.855-.044l-13.05-7.379a1 1 0 0 1 .02-1.752l14.438-7.72a3 3 0 0 1 2.891.033z"/>
        <path fill="#CEE1EF" d="M386.478 180.547V294.78c-.52.002-1.134-.108-1.843-.33l-12.114-6.865a3 3 0 0 1-1.52-2.61V171.778l15.477 8.77z"/>
        <path fill="#A1B6CE" d="M386.478 180.163v114.616a4.42 4.42 0 0 0 1.666-.282l13.27-7.18a3 3 0 0 0 1.572-2.639V171.525l-16.508 8.638z"/>
        <path fill="#E8F5FF" d="M388.862 163.234l13.53 7.649a1 1 0 0 1-.021 1.752l-13.953 7.461a4 4 0 0 1-3.855-.045l-13.05-7.378a1 1 0 0 1 .02-1.753l14.438-7.72a3 3 0 0 1 2.89.034z"/>
        <path fill="#CEE1EF" d="M310.549 167.923v114.232c-.52.002-1.134-.108-1.843-.331l-12.114-6.864a3 3 0 0 1-1.52-2.61V159.154l15.477 8.77z"/>
        <path fill="#A1B6CE" d="M310.549 167.538v114.617a4.42 4.42 0 0 0 1.666-.283l13.27-7.18a3 3 0 0 0 1.572-2.638V158.9l-16.508 8.637z"/>
        <path fill="#E8F5FF" d="M312.933 150.61l13.53 7.649a1 1 0 0 1-.021 1.752l-13.953 7.461a4 4 0 0 1-3.855-.045l-13.051-7.379a1 1 0 0 1 .02-1.752l14.439-7.72a3 3 0 0 1 2.89.034z"/>
        <path fill="#CEE1EF" d="M335.858 181.519V295.75c-.519.002-1.133-.108-1.842-.33l-12.114-6.865a3 3 0 0 1-1.521-2.61V172.75l15.477 8.77z"/>
        <path fill="#A1B6CE" d="M335.858 181.134V295.75a4.42 4.42 0 0 0 1.667-.282l13.27-7.18a3 3 0 0 0 1.571-2.639V172.496l-16.508 8.638z"/>
        <path fill="#E8F5FF" d="M338.242 164.205l13.53 7.649a1 1 0 0 1-.02 1.752l-13.954 7.461a4 4 0 0 1-3.855-.045l-13.05-7.378a1 1 0 0 1 .02-1.753l14.438-7.72a3 3 0 0 1 2.891.034z"/>
        <path fill="#CEE1EF" d="M361.168 196.085v114.232c-.52.002-1.133-.108-1.842-.331l-12.114-6.864a3 3 0 0 1-1.521-2.61V187.315l15.477 8.77z"/>
        <path fill="#A1B6CE" d="M361.168 195.7v114.617a4.42 4.42 0 0 0 1.666-.283l13.27-7.18a3 3 0 0 0 1.572-2.638V187.062l-16.508 8.638z"/>
        <path fill="#E8F5FF" d="M363.552 178.771l13.53 7.65a1 1 0 0 1-.02 1.752l-13.954 7.46a4 4 0 0 1-3.855-.044l-13.05-7.379a1 1 0 0 1 .02-1.752l14.438-7.72a3 3 0 0 1 2.891.033z"/>
        <path fill="#FF9868" d="M458.641 124.706l6.71 2.505 5.65-4.706-3.545-3.208-8.815 5.409zm26.751 49.243l8.575-4.02-.669-5-7.266 1.844-.64 7.176z"/>
        <path fill="#AE282E" d="M468.747 111.244l5.21 8.348 4.468.038.998-6.67-3.775-5.445-6.9 3.73zm32.478 61.548l6.29-3.718-1.996-7.034-5.922-2.332-2.633 3.155 4.26 9.93z"/>
        <path fill="#FF9868" d="M479.187 112.297l6.88 5.22 7.156-3.804-7.11-5.073z"/>
        <path fill="#AE282E" d="M486.608 116.901l.87 9.248 18.153 35.971 6.949-3.776.211-.115.582-8.412-6.155-5.544-1.294-5.368 3.867-4.069-5.193-9.765-5.567.87-4.074-3.94-1.734-8.288zM481.686 127.42c-2.805-1.354-5.58-1.583-7.834-.385-5.225 2.778-5.661 12.176-.974 20.992 4.687 8.815 12.722 13.709 17.947 10.93 2.254-1.198 3.616-3.627 4.061-6.71-4.084.983-9.601-2.76-12.942-9.041-3.34-6.282-3.357-12.95-.258-15.785z"/>
        <path fill="#F06321" d="M463.367 114.347l3.44 8.224-1.932 4.31-6.234-2.175-.235 7.964 6.127 5.788 1.406 5.26-3.546 4.206 5.338 10.04 4.954-1.109 3.476 3.472 1.48 9 7.751 4.622 1.785-6.313 3.238.57 5.522 7.398 5.288-2.812-2.897-8.793 1.634-3.161 6.149 2.095.387-8.95-6.03-5.562-1.242-5.678 3.428-3.767-5.164-9.714-5.028.76-4.136-4.215-1.559-8.933-7.58-4.577-1.287 7.047-3.342-.05-5.434-8.008-5.757 3.061zm26.295 24.944c3.744 7.041 3.4 14.546-.768 16.762-4.167 2.216-10.581-1.696-14.325-8.737-3.744-7.041-3.4-14.546.767-16.762 4.168-2.216 10.582 1.696 14.326 8.737z"/>
        <path fill="#E8F5FF" d="M404.729 114.033l7.585 3.556 5.958-4.897-3.651-3.234-9.892 4.575zm27.9 51.144l8.864-4.74-.605-5.21-7.491 3.694-.768 6.256z"/>
        <path fill="#A1B6CE" d="M415.41 100.177l5.655 8.86 4.454-.54 1.648-6.589-3.974-5.653-7.784 3.922zm33.068 64.528l7.89-4.27-2.001-7.372-6.384-2.318-2.938 3.39 3.433 10.57z"/>
        <path fill="#E8F5FF" d="M425.765 101.302l7.686 4.977 7.156-3.805-7.11-5.073z"/>
        <path fill="#A1B6CE" d="M433.593 106.11l1.314 9.912 19.288 38.106 6.946-3.78.212-.116.38-8.79-6.374-5.957-1.445-5.65 3.817-4.164-5.504-10.352-5.62.773-4.226-4.226-1.774-9.392zM429.146 116.746c-2.959-1.427-5.888-1.666-8.267-.402-5.515 2.933-5.981 12.843-1.04 22.134 4.94 9.292 13.416 14.447 18.931 11.514 2.379-1.264 3.818-3.827 4.29-7.078-4.31 1.04-10.13-2.903-13.652-9.524-3.52-6.622-3.534-13.652-.262-16.644z"/>
        <path fill="#CEE1EF" d="M409.511 103.313l3.598 8.564-1.954 4.46-6.426-2.304-.183 8.268 6.344 6.055 1.484 5.473-3.616 4.34 5.564 10.464 5.087-1.114 3.6 3.63 1.588 9.357 8.005 4.856 1.789-6.542 3.334.616 5.733 7.721 5.417-2.88-3.044-9.151 1.657-3.27 6.338 2.22.332-9.289-6.243-5.82-1.318-5.905 3.497-3.886-5.383-10.124-5.164.752-4.284-4.407-1.67-9.287-7.828-4.808-1.272 7.307-3.437-.078-5.647-8.354-5.898 3.136zm27.225 26.094c3.902 7.339 3.604 15.128-.665 17.398-4.27 2.27-10.894-1.839-14.796-9.177-3.902-7.339-3.604-15.128.665-17.399 4.27-2.27 10.894 1.84 14.796 9.178z"/>
        <g>
            <path fill="#E8F5FF" d="M444.084 182.44l7.316 3.015 5.957-4.898-3.65-3.233-9.623 5.116zm27.631 50.603l8.864-4.741-.606-5.21-7.49 3.694-.768 6.257z"/>
            <path fill="#A1B6CE" d="M454.163 168.435l5.988 8.467 4.454-.54 1.648-6.588-3.974-5.654-8.116 4.315zm33.384 63.849l7.907-3.983-2.002-7.373-6.383-2.318-2.939 3.391 3.417 10.283z"/>
            <path fill="#E8F5FF" d="M464.894 169.354l7.643 4.79 7.155-3.805-7.11-5.073z"/>
            <path fill="#A1B6CE" d="M472.68 173.975l1.313 9.912 19.288 38.106 6.946-3.78.211-.115.381-8.792-6.374-5.955-1.445-5.652 3.816-4.163-5.504-10.351-5.619.773-4.226-4.227-1.775-9.392zM468.232 184.611c-2.96-1.426-5.889-1.666-8.267-.401-5.515 2.932-5.981 12.842-1.04 22.133 4.94 9.292 13.415 14.447 18.93 11.515 2.38-1.265 3.819-3.828 4.29-7.079-4.31 1.04-10.13-2.903-13.65-9.524-3.522-6.622-3.535-13.652-.263-16.644z"/>
            <path fill="#CEE1EF" d="M448.597 171.178l3.598 8.564-1.954 4.46-6.427-2.304-.182 8.269 6.343 6.054 1.484 5.473-3.615 4.34 5.564 10.464 5.087-1.114 3.6 3.63 1.587 9.357 8.006 4.856 1.789-6.542 3.334.616 5.733 7.722 5.416-2.88-3.043-9.152 1.657-3.27 6.338 2.22.332-9.288-6.243-5.821-1.318-5.904 3.497-3.887-5.383-10.124-5.164.752-4.285-4.407-1.669-9.287-7.828-4.808-1.272 7.307-3.437-.078-5.647-8.354-5.898 3.136zm27.225 26.094c3.902 7.34 3.604 15.129-.665 17.399-4.27 2.27-10.894-1.84-14.796-9.178-3.902-7.339-3.604-15.128.665-17.398 4.27-2.27 10.894 1.839 14.796 9.177z"/>
        </g>
        <path fill="url(#a)" d="M121.058 43.761C85.228 63.129 56.54 79.361 35 92.46l18.534 26.875c44.734-27.916 72.034-44.773 81.9-50.57 4.75-3.327 4.383-9.65-1.1-18.968-4.792-6.08-9.218-8.092-13.276-6.036z" opacity=".479" transform="translate(354 87)"/>
        <path fill="url(#b)" d="M107.426 100.539a73272.78 73272.78 0 0 1-68.34 39.794l14.799 26.156c35.43-20.169 57.908-33.347 67.436-39.535 5.522-3.765 3.467-11.493.392-17.338-3.075-5.846-9.886-11.393-14.287-9.077zM68.34 32.539A73270.277 73270.277 0 0 1 0 72.333l14.8 26.156C50.228 78.32 72.707 65.142 82.235 58.954c5.521-3.765 3.466-11.493.391-17.338-3.075-5.846-9.886-11.393-14.287-9.077z" opacity=".6" transform="translate(354 87)"/>
        <g transform="translate(173 19)">
            <g transform="translate(145.785 115.297)">
                <path fill="#F06321" d="M16.522 18.181v17.175c-.518.002-1.132-.11-1.84-.333L2.586 28.137A3 3 0 0 1 1.07 25.53V9.385l15.453 8.796z"/>
                <path fill="#AE282E" d="M16.522 17.795v17.56a4.395 4.395 0 0 0 1.664-.283l13.25-7.203a3 3 0 0 0 1.568-2.636V9.13l-16.482 8.664z"/>
                <path fill="#FF9868" d="M18.91.819L32.417 8.49a1 1 0 0 1-.02 1.75l-13.928 7.482a4 4 0 0 1-3.868-.045l-13.027-7.4a1 1 0 0 1 .02-1.75L16.008.784A3 3 0 0 1 18.91.82z"/>
                <ellipse cx="17.008" cy="9.385" fill="#FFF" opacity=".509" rx="6.317" ry="2.922"/>
            </g>
            <rect width="1.944" height="28.248" x="161.335" y="96.433" fill="url(#c)" rx=".972"/>
            <path fill="#CEE1EF" d="M17.98 0L178 94l-18 9L0 9.74z"/>
            <path fill="#B12A30" fill-rule="nonzero" d="M49.567 105.692l15.62 8.033-15.438 8.034-15.437-8.034 15.255-8.033zm-12.106 8.026l12.288 6.395 12.26-6.38-12.434-6.395-12.114 6.38z"/>
            <path fill="#B12A30" fill-rule="nonzero" d="M49.567 91.08l15.62 8.034-15.438 8.034-15.437-8.034 15.255-8.034zM37.46 99.107l12.288 6.395 12.26-6.38-12.434-6.395-12.114 6.38z"/>
            <path fill="#B12A30" fill-rule="nonzero" d="M49.567 76.47l15.62 8.033-15.438 8.034-15.437-8.034 15.255-8.034zM37.46 84.495l12.288 6.395 12.26-6.38-12.434-6.395-12.114 6.38z"/>
            <path fill="#B12A30" fill-rule="nonzero" d="M49.567 62.832l15.62 8.034L49.749 78.9l-15.437-8.034 15.255-8.034zM37.46 70.858l12.288 6.396 12.26-6.38-12.434-6.395-12.114 6.38z"/>
            <path fill="#B12A30" fill-rule="nonzero" d="M49.567 48.221l15.62 8.034-15.438 8.034-15.437-8.034 15.255-8.034zM37.46 56.247l12.288 6.396 12.26-6.38-12.434-6.396-12.114 6.38z"/>
            <path fill="#B12A30" fill-rule="nonzero" d="M49.567 33.61l15.62 8.034-15.438 8.034-15.437-8.034 15.255-8.034zM37.46 41.636l12.288 6.395 12.26-6.38-12.434-6.395-12.114 6.38z"/>
            <path fill="#F06321" d="M34.312 27.494h1.51v121.923h-1.51zM63.469 27.494h1.51v121.923h-1.51zM35.822 42.209l13.745 18.865v2.24L35.822 44.577zM35.822 27.597l13.745 18.866v2.24L35.822 29.966zM35.822 56.82l13.745 18.865v2.241L35.822 59.187zM35.822 71.43l13.745 18.867v2.24L35.822 73.798zM35.822 85.068l13.745 18.866v2.24L35.822 87.435zM35.822 99.679l13.745 18.866v2.24l-13.745-18.738z"/>
            <path fill="#F06321" d="M64.145 42.209L50.4 61.074v2.24l13.745-18.738zM64.145 27.597L50.4 46.463v2.24l13.745-18.738zM64.145 56.82L50.4 75.685v2.241l13.745-18.739zM64.145 71.43L50.4 90.298v2.24l13.745-18.739zM64.145 85.068L50.4 103.934v2.24l13.745-18.739zM64.145 99.679L50.4 118.545v2.24l13.745-18.738z"/>
            <path fill="#F06321" fill-rule="nonzero" d="M48.89 27.494h1.51v121.923h-1.51z"/>
        </g>
        <g fill="#B12A30" fill-rule="nonzero">
            <path d="M190.104 2.095l16.579 27.56c.204.34.641.447.976.24a.725.725 0 0 0 .237-.99l-16.579-27.56a.705.705 0 0 0-.976-.24.725.725 0 0 0-.237.99zM207.104 11.095l16.579 27.56c.204.34.641.447.976.24a.725.725 0 0 0 .237-.99l-16.579-27.56a.705.705 0 0 0-.976-.24.725.725 0 0 0-.237.99zM241.104 32.095l16.579 27.56c.204.34.641.447.976.24a.725.725 0 0 0 .237-.99l-16.579-27.56a.705.705 0 0 0-.976-.24.725.725 0 0 0-.237.99zM258.104 42.095l16.579 27.56c.204.34.641.447.976.24a.725.725 0 0 0 .237-.99l-16.579-27.56a.705.705 0 0 0-.976-.24.725.725 0 0 0-.237.99zM277.104 52.095l16.579 27.56c.204.34.641.447.976.24a.725.725 0 0 0 .237-.99l-16.579-27.56a.705.705 0 0 0-.976-.24.725.725 0 0 0-.237.99zM296.104 64.095l16.579 27.56c.204.34.641.447.976.24a.725.725 0 0 0 .237-.99l-16.579-27.56a.705.705 0 0 0-.976-.24.725.725 0 0 0-.237.99zM313.104 74.095l16.579 27.56c.204.34.641.447.976.24a.725.725 0 0 0 .237-.99l-16.579-27.56a.705.705 0 0 0-.976-.24.725.725 0 0 0-.237.99zM332.104 85.095l16.579 27.56c.204.34.641.447.976.24a.725.725 0 0 0 .237-.99l-16.579-27.56a.705.705 0 0 0-.976-.24.725.725 0 0 0-.237.99z"/>
        </g>
        <g fill="#AE282E" fill-rule="nonzero">
            <path d="M173 9l18-9v20l-18 9V9zm1.421.95v16.68l15.158-7.58V2.37L174.42 9.95z"/>
            <path d="M190 19l18-9v20l-9 4.5-8.096 4.048-.904-.73V19zm1.421.95v16.68l15.158-7.58V12.37l-15.158 7.58zM241 49l18-9v20l-16.482 8.241-1.518-.888V49zm1.421.95v16.68l15.158-7.58V42.37l-15.158 7.58zM259 59l17.052-8.526.948.738V70l-17.027 8.514-.973-.783V59zm1.421.95v16.68l15.158-7.58V52.37l-15.158 7.58zM278 71l18-9v20l-16.452 8.226L278 89.107V71zm1.421.95v16.68l15.158-7.58V64.37l-15.158 7.58zM296 81l18-9v20l-16.638 8.319-1.362-.956V81zm1.421.95v16.68l15.158-7.58V74.37l-15.158 7.58zM314 92l18-9v20l-16.611 8.306L314 110.2V92zm1.421.95v16.68l15.158-7.58V85.37l-15.158 7.58zM333 102l18-9v20l-18 9v-20zm1.421.95v16.68l15.158-7.58V95.37l-15.158 7.58z"/>
        </g>
        <path fill="#F06321" d="M208 28l15 9.636V57l-15-9.636z"/>
        <path fill="#FF9868" d="M224.242 20L240 29.075 222.45 38 207 28.555z"/>
        <path fill="#C2460C" d="M240 29l-18 9.102.126 18.898 17.806-9.729z"/>
        <g transform="translate(206 326)">
            <mask id="e" fill="#fff">
                <use xlink:href="#d"/>
            </mask>
            <use fill="#F06321" xlink:href="#d"/>
            <path fill="#000" d="M14.892 6.36L73.78 40.4l18.96-10.002L32.283-2.938z" mask="url(#e)" opacity=".132"/>
        </g>
        <path fill="#AE282E" d="M206 342.604v4.025L255.888 376 286 358.92l-.14-3.42-29.972 16.302z"/>
        <g transform="translate(145 85)">
            <mask id="g" fill="#fff">
                <use xlink:href="#f"/>
            </mask>
            <use fill="#AE282E" xlink:href="#f"/>
            <path fill="#F06321" d="M-.765 7.341L16.329 0 247.34 130.6l-24.1 11.657L-5.526 10z" mask="url(#g)"/>
        </g>
        <path stroke="#C2E0F5" stroke-linecap="square" d="M147.487 128l220.026 125.98"/>
        <path fill="#FFF" d="M156.964 102.325L359.75 218a20 20 0 0 1 10.088 17.647l-2.255 164.277a3 3 0 0 1-4.482 2.567L155.118 284.296A20 20 0 0 1 145 266.908V109.274a8 8 0 0 1 11.964-6.95z"/>
        <path fill="#F06321" d="M183.644 128.676l171.712 98.928A9.274 9.274 0 0 1 360 235.64a3.098 3.098 0 0 1-4.644 2.684l-171.712-98.928A9.274 9.274 0 0 1 179 131.36a3.098 3.098 0 0 1 4.644-2.684z" opacity=".2"/>
        <ellipse cx="174.103" cy="129.046" fill="#F06321" opacity=".2" rx="3.407" ry="5.357" transform="rotate(-5 174.103 129.046)"/>
        <ellipse cx="166.317" cy="124.177" fill="#F06321" opacity=".2" rx="3.407" ry="5.357" transform="rotate(-5 166.317 124.177)"/>
        <ellipse cx="158.53" cy="119.307" fill="#F06321" opacity=".2" rx="3.407" ry="5.357" transform="rotate(-5 158.53 119.307)"/>
        <path fill="#FF8E59" d="M154.683 100.039l205.554 118.265A19.47 19.47 0 0 1 370 235.179v162.032a7.792 7.792 0 0 1-11.7 6.74L152.72 284.954a19.47 19.47 0 0 1-9.72-16.85V106.789a7.792 7.792 0 0 1 11.683-6.75zm-1.945 3.375a3.899 3.899 0 0 0-5.841 3.375v161.315a15.576 15.576 0 0 0 7.775 13.48l205.58 118.997a3.899 3.899 0 0 0 5.851-3.37V235.179c0-5.572-2.978-10.72-7.81-13.5L152.737 103.414z"/>
        <g transform="translate(188 166)">
            <path fill="#CEE1EF" d="M6.053 3.619L130.793 78.2a12 12 0 0 1 5.841 10.3v34.66a4 4 0 0 1-6.053 3.433L5.842 52.01A12 12 0 0 1 0 41.712V7.052a4 4 0 0 1 6.053-3.433z"/>
            <ellipse cx="16.995" cy="33.66" fill="#FFF" opacity=".6" rx="7.287" ry="14.07" transform="rotate(-4 16.995 33.66)"/>
            <path fill="#FFF" d="M31.09 32.966l87.434 51.847a5.962 5.962 0 0 1 2.92 5.128 1.935 1.935 0 0 1-2.92 1.664L31.09 39.76a5.962 5.962 0 0 1-2.922-5.129 1.935 1.935 0 0 1 2.922-1.664zM31.038 46.635l31.85 20.15a6.168 6.168 0 0 1 2.87 5.212 1.87 1.87 0 0 1-2.87 1.58l-31.85-20.15a6.168 6.168 0 0 1-2.87-5.212 1.87 1.87 0 0 1 2.87-1.58z" opacity=".6"/>
        </g>
        <g transform="translate(188 225)">
            <path fill="#CEE1EF" d="M6.053 3.619L130.793 78.2a12 12 0 0 1 5.841 10.3v34.66a4 4 0 0 1-6.053 3.433L5.842 52.01A12 12 0 0 1 0 41.712V7.052a4 4 0 0 1 6.053-3.433z"/>
            <ellipse cx="16.995" cy="33.66" fill="#FFF" opacity=".6" rx="7.287" ry="14.07" transform="rotate(-4 16.995 33.66)"/>
            <path fill="#FFF" d="M31.09 32.966l87.434 51.847a5.962 5.962 0 0 1 2.92 5.128 1.935 1.935 0 0 1-2.92 1.664L31.09 39.76a5.962 5.962 0 0 1-2.922-5.129 1.935 1.935 0 0 1 2.922-1.664zM31.038 46.635l31.85 20.15a6.168 6.168 0 0 1 2.87 5.212 1.87 1.87 0 0 1-2.87 1.58l-31.85-20.15a6.168 6.168 0 0 1-2.87-5.212 1.87 1.87 0 0 1 2.87-1.58z" opacity=".6"/>
        </g>
        <g transform="translate(50 235)">
            <path fill="#F06321" d="M6.053 3.619L130.793 78.2a12 12 0 0 1 5.841 10.3v34.66a4 4 0 0 1-6.053 3.433L5.842 52.01A12 12 0 0 1 0 41.712V7.052a4 4 0 0 1 6.053-3.433z"/>
            <ellipse cx="16.995" cy="33.66" fill="#FFF" opacity=".6" rx="7.287" ry="14.07" transform="rotate(-4 16.995 33.66)"/>
            <path fill="#FFF" d="M31.09 32.966l87.434 51.847a5.962 5.962 0 0 1 2.92 5.128 1.935 1.935 0 0 1-2.92 1.664L31.09 39.76a5.962 5.962 0 0 1-2.922-5.129 1.935 1.935 0 0 1 2.922-1.664zM31.038 46.635l31.85 20.15a6.168 6.168 0 0 1 2.87 5.212 1.87 1.87 0 0 1-2.87 1.58l-31.85-20.15a6.168 6.168 0 0 1-2.87-5.212 1.87 1.87 0 0 1 2.87-1.58z" opacity=".6"/>
        </g>
        <g transform="translate(0 244)">
            <path fill="#CEE1EF" d="M6.053 3.619L130.793 78.2a12 12 0 0 1 5.841 10.3v34.66a4 4 0 0 1-6.053 3.433L5.842 52.01A12 12 0 0 1 0 41.712V7.052a4 4 0 0 1 6.053-3.433z" opacity=".8"/>
            <ellipse cx="13.117" cy="24.744" fill="#FFF" rx="5.344" ry="9.219" transform="rotate(-7 13.117 24.744)"/>
            <ellipse cx="118.053" cy="98.493" fill="#FFF" rx="5.344" ry="9.219" transform="rotate(-7 118.053 98.493)"/>
            <path fill="#FFF" d="M20.542 21.348L88.406 61.48a4 4 0 0 1 1.964 3.443v6.23a2 2 0 0 1-3.008 1.727L25.417 36.74a4 4 0 0 1-1.985-3.454V27.6l-2.89-6.253zM111.609 104.716L43.744 64.584a4 4 0 0 1-1.964-3.443v-6.23a2 2 0 0 1 3.008-1.727l61.946 36.14a4 4 0 0 1 1.984 3.454v5.685l2.89 6.253z" opacity=".626"/>
        </g>
        <g>
            <path fill="#AE282E" d="M84.935 93.282l79.871 44.158A12 12 0 0 1 171 147.942V261.46a4 4 0 0 1-5.964 3.485L85.11 219.91A12 12 0 0 1 79 209.455V96.782a4 4 0 0 1 5.935-3.5z" opacity=".8"/>
            <path stroke="#FFF" stroke-linecap="round" stroke-width="2" d="M88.488 208.035c2.855-3.517 5.73-5.61 8.627-6.283 4.344-1.008 7.923 5.345 12.913 4.014 4.99-1.33 6.05-8.977 11.935-9.507 5.885-.53 11.23 19.884 17.489 17.607 4.173-1.518 9.502-4.218 15.987-8.1"/>
            <path stroke="#F06321" stroke-linecap="round" stroke-linejoin="round" stroke-width="2" d="M88.114 113.348v95.54l71.716 42"/>
            <path stroke="#FFF" stroke-linecap="round" stroke-width="2" d="M88.419 196.259c2.547-6.938 5.26-10.787 8.135-11.547 4.314-1.14 6.556 5.176 11.51 3.671 4.955-1.504 9.004-23.937 14.847-24.537 5.843-.6 8.319 10.045 14.534 7.47 4.143-1.717 9.333-8.242 15.57-19.577"/>
        </g>
        <g fill="#F06321" fill-rule="nonzero">
            <path d="M173.104 10.267l176.064 102.21c.446-.124.723-.283.832-.477.109-.194.109-.53 0-1.01L173.837 9c-.35.057-.594.206-.733.446-.139.24-.139.514 0 .821zM189.948 1.052l159.996 93.837c.433.168.708.145.826-.068.117-.213.194-.618.23-1.215L191 0c-.484 0-.804.082-.962.247-.158.165-.188.433-.09.805zM172.946 28.852l160.034 93.409 1.358-.662L173.68 27.588c-.345.026-.59.164-.734.412-.144.248-.144.532 0 .852z"/>
            <path d="M174.104 11.095l16.579 27.56c.204.34.641.447.976.24a.725.725 0 0 0 .237-.99l-16.579-27.56a.705.705 0 0 0-.976-.24.725.725 0 0 0-.237.99z"/>
            <path d="M174.104 11.095l16.579 27.56c.204.34.641.447.976.24a.725.725 0 0 0 .237-.99l-16.579-27.56a.705.705 0 0 0-.976-.24.725.725 0 0 0-.237.99zM189.104 20.095l16.579 27.56c.204.34.641.447.976.24a.725.725 0 0 0 .237-.99l-16.579-27.56a.705.705 0 0 0-.976-.24.725.725 0 0 0-.237.99zM224.104 39.095l16.522 28.686c.204.34.642.447.977.24a.725.725 0 0 0 .237-.99l-16.523-28.686a.705.705 0 0 0-.976-.24.725.725 0 0 0-.237.99zM241.104 50.095l16.579 27.56c.204.34.641.447.976.24a.725.725 0 0 0 .237-.99l-16.579-27.56a.705.705 0 0 0-.976-.24.725.725 0 0 0-.237.99zM261.104 61.095l16.579 27.56c.204.34.641.447.976.24a.725.725 0 0 0 .237-.99l-16.579-27.56a.705.705 0 0 0-.976-.24.725.725 0 0 0-.237.99zM279.104 71.095l16.579 27.56c.204.34.641.447.976.24a.725.725 0 0 0 .237-.99l-16.579-27.56a.705.705 0 0 0-.976-.24.725.725 0 0 0-.237.99zM296.104 82.095l16.579 27.56c.204.34.641.447.976.24a.725.725 0 0 0 .237-.99l-16.579-27.56a.705.705 0 0 0-.976-.24.725.725 0 0 0-.237.99zM316.104 93.095l16.579 27.56c.204.34.641.447.976.24a.725.725 0 0 0 .237-.99l-16.579-27.56a.705.705 0 0 0-.976-.24.725.725 0 0 0-.237.99z"/>
        </g>
    </g>
</svg>
