<svg xmlns="http://www.w3.org/2000/svg" width="65" height="46" viewBox="0 0 65 46">
    <path fill="#F06321" fill-rule="nonzero" d="M61.984 33.82c1.663 0 3.016 1.363 3.016 3.039a9.122 9.122 0 0 1-2.655 6.465A8.982 8.982 0 0 1 55.93 46H9.071C4.069 46 0 41.9 0 36.859c0-.8.32-1.58.88-2.145a2.99 2.99 0 0 1 2.136-.895h1.125V4.63C4.141 2.076 6.202 0 8.735 0h47.53C58.8 0 60.86 2.076 60.86 4.63v29.19h1.125zM7.062 4.63v29.19h20.442c.807 0 1.461.659 1.461 1.471V36.8h7.07v-1.509c0-.812.654-1.472 1.46-1.472h20.443V4.63c0-.93-.75-1.685-1.673-1.685H8.735a1.68 1.68 0 0 0-1.673 1.685zM60.28 41.241a6.181 6.181 0 0 0 1.8-4.383.096.096 0 0 0-.095-.096H38.956v1.509c0 .813-.654 1.472-1.46 1.472h-9.992c-.806 0-1.46-.66-1.46-1.472v-1.509H3.016c-.012 0-.037 0-.07.033-.025 3.48 2.734 6.26 6.125 6.26h46.858a6.086 6.086 0 0 0 4.35-1.814zm-29.108-21.37c0 5.546-4.477 10.059-9.981 10.059s-9.982-4.513-9.982-10.059c0-5.546 4.477-10.059 9.981-10.059s9.982 4.513 9.982 10.059zm-9.981 7.115c3.893 0 7.06-3.192 7.06-7.115s-3.167-7.115-7.06-7.115-7.06 3.192-7.06 7.115 3.167 7.115 7.06 7.115zm15.5-13.124c-.807 0-1.461-.66-1.461-1.472 0-.813.654-1.472 1.46-1.472h15.642c.806 0 1.46.659 1.46 1.472 0 .812-.654 1.472-1.46 1.472H36.689zm0 7.481c-.807 0-1.461-.66-1.461-1.472 0-.813.654-1.472 1.46-1.472h15.642c.806 0 1.46.66 1.46 1.472 0 .813-.654 1.472-1.46 1.472H36.689zm0 7.481c-.807 0-1.461-.659-1.461-1.472 0-.812.654-1.472 1.46-1.472h15.642c.806 0 1.46.66 1.46 1.472 0 .813-.654 1.472-1.46 1.472H36.689z"/>
</svg>
