<svg xmlns="http://www.w3.org/2000/svg" width="44" height="44" viewBox="0 0 44 44">
    <path fill="#F26421" fill-rule="nonzero" d="M3 0h14a3 3 0 0 1 3 3v14a3 3 0 0 1-3 3H3a3 3 0 0 1-3-3V3a3 3 0 0 1 3-3zm0 3v14h14V3H3zm0 21h14a3 3 0 0 1 3 3v14a3 3 0 0 1-3 3H3a3 3 0 0 1-3-3V27a3 3 0 0 1 3-3zm0 3v14h14V27H3zm30 7v-4.5a1.5 1.5 0 1 1 3 0V34h4.5a1.5 1.5 0 1 1 0 3H36v4.5a1.5 1.5 0 1 1-3 0V37h-4.5a1.5 1.5 0 1 1 0-3H33zM27 0h14a3 3 0 0 1 3 3v14a3 3 0 0 1-3 3H27a3 3 0 0 1-3-3V3a3 3 0 0 1 3-3zm0 3v14h14V3H27z"/>
</svg>
