<svg xmlns="http://www.w3.org/2000/svg" width="22" height="22" viewBox="0 0 22 22">
    <path fill="#F06321" fill-rule="nonzero" d="M1.5 0h7A1.5 1.5 0 0 1 10 1.5v7A1.5 1.5 0 0 1 8.5 10h-7A1.5 1.5 0 0 1 0 8.5v-7A1.5 1.5 0 0 1 1.5 0zm0 1.5v7h7v-7h-7zm0 10.5h7a1.5 1.5 0 0 1 1.5 1.5v7A1.5 1.5 0 0 1 8.5 22h-7A1.5 1.5 0 0 1 0 20.5v-7A1.5 1.5 0 0 1 1.5 12zm0 1.5v7h7v-7h-7zm15 3.5v-2.25a.75.75 0 1 1 1.5 0V17h2.25a.75.75 0 1 1 0 1.5H18v2.25a.75.75 0 1 1-1.5 0V18.5h-2.25a.75.75 0 1 1 0-1.5h2.25zm-3-17h7A1.5 1.5 0 0 1 22 1.5v7a1.5 1.5 0 0 1-1.5 1.5h-7A1.5 1.5 0 0 1 12 8.5v-7A1.5 1.5 0 0 1 13.5 0zm0 1.5v7h7v-7h-7z"/>
</svg>
