<svg xmlns="http://www.w3.org/2000/svg" width="47" height="31" viewBox="0 0 47 31">
    <g fill="#F26421" fill-rule="evenodd" transform="translate(-.272 -.383)">
        <path d="M4.515 16l9.546 9.546a1.5 1.5 0 0 1-2.122 2.121L1.333 17.061a1.5 1.5 0 0 1 0-2.122L11.939 4.333a1.5 1.5 0 0 1 2.122 2.121L4.515 16zM43.485 16l-9.546 9.546a1.5 1.5 0 0 0 2.122 2.121l10.606-10.606a1.5 1.5 0 0 0 0-2.122L36.061 4.333a1.5 1.5 0 0 0-2.122 2.121L43.485 16z"/>
        <rect width="3" height="32" x="23" rx="1.5" transform="rotate(19 24.5 16)"/>
    </g>
</svg>
