<svg xmlns="http://www.w3.org/2000/svg" width="223" height="223" viewBox="0 0 223 223">
    <g fill="#AE282E" fill-rule="evenodd">
        <rect width="223" height="223" opacity=".05" rx="111.5"/>
        <path fill-rule="nonzero" d="M153.5 67a2.5 2.5 0 0 1 2.5 2.5c0 21.903-9.285 42.178-24.522 56.498l-.478.446V154.5a2.5 2.5 0 0 1-4.119 1.904l-.148-.137-16.21-16.211a77.037 77.037 0 0 1-11.54 4.178 2.496 2.496 0 0 1-2.28-.508l-.148-.136-17.146-17.145a2.499 2.499 0 0 1-.644-2.427 76.86 76.86 0 0 1 3.765-10.614l.413-.926-16.21-16.211a2.5 2.5 0 0 1 1.59-4.26L68.5 92h28.056C110.9 76.48 131.37 67 153.5 67zm-73.232 75.733c.935.934.976 2.422.122 3.404l-.122.131-10 10A2.493 2.493 0 0 1 68.5 157a2.498 2.498 0 0 1-1.889-4.136l.122-.131 10-10a2.498 2.498 0 0 1 3.535 0zm10 2.5c.935.934.976 2.422.122 3.404l-.122.131-7.5 7.5A2.493 2.493 0 0 1 81 157a2.5 2.5 0 0 1-1.889-4.136l.122-.131 7.5-7.5a2.498 2.498 0 0 1 3.535 0zM126 130.686a77.17 77.17 0 0 1-9.811 6.502l-.946.519L126 148.464v-17.778zm-48.232 2.047c.935.934.976 2.422.122 3.404l-.122.131-7.5 7.5a2.493 2.493 0 0 1-1.768.732 2.498 2.498 0 0 1-1.889-4.136l.122-.131 7.5-7.5a2.498 2.498 0 0 1 3.535 0zm46.076-54.353c-18.69 8.415-33.463 24.572-39.673 44.943l-.188.625 15.07 15.069c20.456-6.035 36.735-20.681 45.307-39.29l.26-.571-20.776-20.776zM116 94.5c6.893 0 12.5 5.607 12.5 12.5s-5.607 12.5-12.5 12.5-12.5-5.607-12.5-12.5 5.607-12.5 12.5-12.5zm0 5c-4.136 0-7.5 3.364-7.5 7.5s3.364 7.5 7.5 7.5 7.5-3.364 7.5-7.5-3.364-7.5-7.5-7.5zM92.315 97H74.536l10.758 10.757A77.169 77.169 0 0 1 92.315 97zm58.641-24.956a72.087 72.087 0 0 0-21.277 4.004l-.808.288 17.794 17.793a72.104 72.104 0 0 0 4.291-22.085z"/>
    </g>
</svg>
