<?xml version="1.0" encoding="UTF-8"?>
<svg width="40px" height="20px" viewBox="0 0 40 20" version="1.1" xmlns="http://www.w3.org/2000/svg" xmlns:xlink="http://www.w3.org/1999/xlink">
    <!-- Generator: Sketch 55.2 (78181) - https://sketchapp.com -->
    <title>label copy 2m</title>
    <desc>Created with Sketch.</desc>
    <g id="label-copy-2" stroke="none" stroke-width="1" fill="none" fill-rule="evenodd">
        <rect id="Rectangle" fill="#004A7F" x="0" y="0" width="40" height="20" rx="2"></rect>
        <path d="M15.2,14 L13.49,14 L10.63,9.66 L10.63,14 L8.92,14 L8.92,6.93 L10.63,6.93 L13.49,11.31 L13.49,6.93 L15.2,6.93 L15.2,14 Z M18.09,8.29 L18.09,9.77 L20.48,9.77 L20.48,11.06 L18.09,11.06 L18.09,12.63 L20.78,12.63 L20.78,14 L16.38,14 L16.38,6.93 L20.78,6.93 L20.78,8.29 L18.09,8.29 Z M31.36,6.93 L29.67,14 L27.55,14 L26.42,9.27 L25.28,14 L23.16,14 L21.47,6.93 L23.33,6.93 L24.24,12.05 L25.48,6.93 L27.35,6.93 L28.59,12.05 L29.51,6.93 L31.36,6.93 Z" id="NEW" fill="#FFFFFF" fill-rule="nonzero"></path>
    </g>
</svg>