<svg xmlns="http://www.w3.org/2000/svg" width="50" height="45" viewBox="0 0 50 45">
    <path fill="#F06321" fill-rule="nonzero" d="M25 4.014c-7.272 0-13.187 5.917-13.187 13.188 0 7.273 5.917 13.188 13.187 13.188 7.272 0 13.188-5.916 13.188-13.188 0-7.271-5.916-13.188-13.188-13.188zm0 24.49c-6.232 0-11.303-5.069-11.302-11.302C13.698 10.97 18.768 5.9 25 5.9c6.232 0 11.303 5.07 11.303 11.303 0 6.232-5.07 11.303-11.303 11.302zM45.495 0H4.505A4.514 4.514 0 0 0 0 4.506V29.9a4.515 4.515 0 0 0 4.512 4.505h9.217v-1.885H4.512a2.624 2.624 0 0 1-2.627-2.62V4.505a2.623 2.623 0 0 1 2.62-2.62h40.99a2.623 2.623 0 0 1 2.62 2.62V29.9a2.623 2.623 0 0 1-2.62 2.62h-9.218v1.885h9.218A4.51 4.51 0 0 0 50 29.899V4.505A4.511 4.511 0 0 0 45.495 0zm-20.27 12.095c.56 0 1.003.2 1.333.598.332.4.499 1 .499 1.806h2.906c0-1.308-.334-2.371-1.008-3.193-.669-.825-1.598-1.317-2.785-1.484V7.64h-1.611v2.152c-1.2.12-2.16.544-2.886 1.267-.724.725-1.086 1.657-1.086 2.789 0 .657.105 1.222.317 1.7.21.476.505.89.882 1.242.38.354.827.668 1.363.935.532.273 1.162.544 1.893.82.73.275 1.246.575 1.554.904.303.326.458.763.458 1.312 0 .53-.17.95-.51 1.263-.343.311-.81.467-1.4.467-.71 0-1.256-.213-1.637-.641-.38-.425-.566-1.035-.566-1.836h-2.907c0 1.376.378 2.476 1.133 3.305.755.827 1.819 1.32 3.193 1.463l.002 1.992 1.598-.001v-2.001c1.245-.128 2.225-.548 2.935-1.258.711-.711 1.067-1.637 1.067-2.777 0-.61-.093-1.143-.282-1.605a3.683 3.683 0 0 0-.813-1.225 5.698 5.698 0 0 0-1.31-.965 17.599 17.599 0 0 0-1.976-.91c-.8-.322-1.348-.637-1.643-.945-.296-.308-.442-.72-.442-1.227 0-.55.15-.981.453-1.292.303-.317.727-.472 1.277-.472zm-15.1 17.711v-1.885H5l-.001 1.885h5.126zm.001-25.208H5v1.885h5.127V4.598zm29.749 25.208h5.126L45 27.921h-5.125v1.885zm5.126-25.208h-5.127l.001 1.886h5.126V4.598zM18.2 40.337h1.885v-7.82H18.2v7.82zm11.715 0H31.8v-7.82h-1.885v7.82zm-5.858 4.146h1.886V32.519h-1.886v11.964z"/>
</svg>
