<svg xmlns="http://www.w3.org/2000/svg" width="50" height="45" viewBox="0 0 50 45">
    <path fill="#F06321" fill-rule="nonzero" d="M47.222 36.833v-5.166c0-.611-.5-1.111-1.11-1.111h-8.89v-1.112c0-.61-.5-1.11-1.11-1.11h-1.668V17.777h1.667c.611 0 1.111-.5 1.111-1.111V15h8.89c.61 0 1.11-.5 1.11-1.111V7.61C48.833 7.111 50 5.667 50 3.89A3.865 3.865 0 0 0 46.111 0a3.865 3.865 0 0 0-3.889 3.889c0 1.778 1.167 3.222 2.778 3.722v5.167h-7.778v-.556c0-.389-.166-.722-.5-.944l-11.11-7.222a1.204 1.204 0 0 0-1.223 0l-11.111 7.222c-.334.222-.5.555-.5.944v4.445c0 .61.5 1.11 1.11 1.11h1.668v10.556h-1.667c-.611 0-1.111.5-1.111 1.111v1.112H5V26.5c1.611-.5 2.778-1.944 2.778-3.722a3.865 3.865 0 0 0-3.89-3.89A3.865 3.865 0 0 0 0 22.779C0 24.556 1.167 26 2.778 26.5v5.167c0 .61.5 1.11 1.11 1.11h8.89v1.112c0 .611.5 1.111 1.11 1.111h3.334v4.444h-9.61c-.5-1.61-1.945-2.777-3.723-2.777A3.865 3.865 0 0 0 0 40.556a3.865 3.865 0 0 0 3.889 3.888c1.778 0 3.222-1.166 3.722-2.777h10.722c.611 0 1.111-.5 1.111-1.111V35h16.667c.611 0 1.111-.5 1.111-1.111v-1.111H45v4.055c-1.611.5-2.778 1.945-2.778 3.723a3.865 3.865 0 0 0 3.89 3.888A3.865 3.865 0 0 0 50 40.556c0-1.778-1.167-3.223-2.778-3.723zM44.444 3.89c0-.945.723-1.667 1.667-1.667.945 0 1.667.722 1.667 1.667 0 .944-.722 1.667-1.667 1.667a1.637 1.637 0 0 1-1.667-1.667zM2.222 22.778c0-.945.722-1.667 1.667-1.667.944 0 1.667.722 1.667 1.667 0 .944-.723 1.666-1.667 1.666a1.637 1.637 0 0 1-1.667-1.666zM3.89 42.222a1.637 1.637 0 0 1-1.667-1.666c0-.945.722-1.667 1.667-1.667.944 0 1.667.722 1.667 1.667 0 .944-.723 1.666-1.667 1.666zm28.333-13.889H28.89V17.778h3.333v10.555zm-8.889 0V17.778h3.334v10.555h-3.334zm0-14.444c0-.945.723-1.667 1.667-1.667.944 0 1.667.722 1.667 1.667 0 .944-.723 1.667-1.667 1.667a1.637 1.637 0 0 1-1.667-1.667zM15 12.833l10-6.5 10 6.5v2.723h-6.5c.222-.5.389-1.056.389-1.667A3.865 3.865 0 0 0 25 10a3.865 3.865 0 0 0-3.889 3.889c0 .611.167 1.167.389 1.667H15v-2.723zm2.778 4.945h3.333v10.555h-3.333V17.778zm17.222 15H15v-2.222h20v2.222zm11.111 9.444a1.637 1.637 0 0 1-1.667-1.666c0-.945.723-1.667 1.667-1.667.945 0 1.667.722 1.667 1.667 0 .944-.722 1.666-1.667 1.666z"/>
</svg>
