<svg xmlns="http://www.w3.org/2000/svg" width="21" height="25" viewBox="0 0 21 25">
    <path fill="#AE282E" fill-rule="nonzero" d="M.712 11.788H13.29l-3.59-3.59a.712.712 0 1 1 1.008-1.007l4.805 4.805.01.014c.03.03.055.06.078.094.014.02.024.042.035.064.01.02.022.038.03.059.011.026.018.053.025.08.006.017.012.034.016.053.01.046.014.093.014.14v.007a.728.728 0 0 1-.014.131c-.004.025-.013.047-.02.07-.007.021-.011.043-.02.063-.011.03-.027.055-.042.082-.008.013-.014.028-.023.04a.731.731 0 0 1-.091.113l-4.803 4.802a.71.71 0 0 1-1.007 0 .712.712 0 0 1 0-1.007l3.588-3.589H.712a.712.712 0 1 1 0-1.424zm5.23 5.272c.394 0 .713.319.713.712v5.09c0 .394.32.713.712.713h10.728c.393 0 .713-.32.713-.712V2.137a.713.713 0 0 0-.713-.712H7.367a.713.713 0 0 0-.712.712v4.901a.712.712 0 1 1-1.425 0v-4.9A2.14 2.14 0 0 1 7.367 0h10.728a2.14 2.14 0 0 1 2.138 2.137v20.726A2.14 2.14 0 0 1 18.095 25H7.367a2.14 2.14 0 0 1-2.137-2.137v-5.09c0-.394.32-.713.713-.713z"/>
</svg>
