<?xml version="1.0" encoding="UTF-8"?>
<svg width="21px" height="25px" viewBox="0 0 21 25" version="1.1" xmlns="http://www.w3.org/2000/svg" xmlns:xlink="http://www.w3.org/1999/xlink">
    <!-- Generator: Sketch 55.2 (78181) - https://sketchapp.com -->
    <title>sign-up-orange</title>
    <desc>Created with Sketch.</desc>
    <g id="Web-Designs" stroke="none" stroke-width="1" fill="none" fill-rule="evenodd">
        <path d="M19.5201185,11.7875869 L6.94374786,11.7875869 L10.53317,8.19873475 C10.811581,7.92060869 10.811581,7.46950872 10.53317,7.19138265 C10.2547589,6.91325658 9.80394392,6.91297162 9.52581785,7.19138265 L4.72073407,11.9958965 C4.71645959,12.000171 4.7138949,12.0053004 4.70962043,12.0095748 C4.68140887,12.0392112 4.65519207,12.0702724 4.63239485,12.1041833 C4.61871652,12.1244158 4.6090277,12.1463581 4.59762909,12.1683005 C4.58737034,12.1876781 4.5754018,12.2062008 4.56713781,12.2267183 C4.55630913,12.2526502 4.54975493,12.2797219 4.54234583,12.3062236 C4.53693149,12.3241765 4.53009233,12.3412744 4.52638778,12.3597971 C4.51726889,12.4059615 4.51213952,12.4526958 4.51213952,12.4994301 C4.51213952,12.499715 4.51213952,12.499715 4.51213952,12.499715 C4.51213952,12.5022797 4.51299441,12.5048444 4.51299441,12.5071241 C4.51356435,12.5510088 4.51755386,12.5951784 4.52610282,12.6384931 C4.53094722,12.6627151 4.53978115,12.6852274 4.54690528,12.7085946 C4.55317451,12.729397 4.55801892,12.7507694 4.56628291,12.7712869 C4.57796649,12.8000684 4.59392454,12.8262852 4.6090277,12.8530719 C4.61672176,12.8664653 4.62242106,12.8807136 4.63125499,12.893822 C4.65804172,12.9340021 4.688533,12.9713325 4.72272883,13.0055283 L9.52524792,17.8083324 C9.66431095,17.9473954 9.8466887,18.0169269 10.0290665,18.0169269 C10.2114442,18.0169269 10.393537,17.9473954 10.532885,17.8083324 C10.811296,17.5302063 10.811296,17.0791063 10.532885,16.8009803 L6.94431779,13.2124131 L19.5201185,13.2124131 C19.9136555,13.2124131 20.2325316,12.893537 20.2325316,12.5 C20.2325316,12.106463 19.9136555,11.7875869 19.5201185,11.7875869 Z M14.2898666,17.0600137 C13.8963296,17.0600137 13.5774536,17.3788898 13.5774536,17.7724268 L13.5774536,22.8627607 C13.5774536,23.2557278 13.2580075,23.5751738 12.8650405,23.5751738 L2.13723926,23.5751738 C1.7442722,23.5751738 1.42482617,23.2557278 1.42482617,22.8627607 L1.42482617,2.13723926 C1.42482617,1.7442722 1.7442722,1.42482617 2.13723926,1.42482617 L12.8650405,1.42482617 C13.2580075,1.42482617 13.5774536,1.7442722 13.5774536,2.13723926 L13.5774536,7.03807136 C13.5774536,7.43160834 13.8963296,7.75048444 14.2898666,7.75048444 C14.6834036,7.75048444 15.0022797,7.43160834 15.0022797,7.03807136 L15.0022797,2.13723926 C15.0022797,0.958623048 14.0436567,0 12.8650405,0 L2.13723926,0 C0.958623048,0 0,0.958623048 0,2.13723926 L0,22.8627607 C0,24.041377 0.958623048,25 2.13723926,25 L12.8650405,25 C14.0436567,25 15.0022797,24.041377 15.0022797,22.8627607 L15.0022797,17.7724268 C15.0022797,17.3788898 14.6831187,17.0600137 14.2898666,17.0600137 Z" id="sign-up-orange" fill="#FC800E" fill-rule="nonzero" transform="translate(10.116266, 12.500000) scale(-1, 1) translate(-10.116266, -12.500000) "></path>
    </g>
</svg>