<svg xmlns="http://www.w3.org/2000/svg" xmlns:xlink="http://www.w3.org/1999/xlink" width="40" height="40" viewBox="0 0 40 40">
    <defs>
        <path id="a" d="M20 40C8.954 40 0 31.046 0 20S8.954 0 20 0s20 8.954 20 20-8.954 20-20 20zm0-.976c10.507 0 19.024-8.517 19.024-19.024C39.024 9.493 30.507.976 20 .976 9.493.976.976 9.493.976 20 .976 30.507 9.493 39.024 20 39.024zM8.787 27.525h22.626v4.482H8.787v-4.482zm1.08 3.402h20.466v-2.322H9.867v2.322zm1.188-12.798h4.482v8.406h-4.482v-8.406zm1.08 7.326h2.322v-6.246h-2.322v6.246zm5.724-7.326h4.482v8.406h-4.482v-8.406zm1.08 7.326h2.322v-6.246h-2.322v6.246zm5.738-7.326h4.482v8.406h-4.482v-8.406zm1.08 7.326h2.321v-6.246h-2.322v6.246zM20.1 8.123l11.313 5.954v3.134H8.787v-3.134L20.1 8.123zm0 1.22L9.867 14.73v1.402h20.466V14.73L20.1 9.343z"/>
    </defs>
    <g fill="none" fill-rule="evenodd">
        <mask id="b" fill="#fff">
            <use xlink:href="#a"/>
        </mask>
        <use fill="#AE282E" fill-rule="nonzero" xlink:href="#a"/>
        <g fill="#AE282E" mask="url(#b)">
            <path d="M0 0h40v40H0z"/>
        </g>
    </g>
</svg>
