<svg xmlns="http://www.w3.org/2000/svg" width="50" height="33" viewBox="0 0 50 33">
    <path fill="#F06321" fill-rule="nonzero" d="M47.143 13.571V9.286H2.857v4.285h44.286zm0 2.858H2.857v10.714A2.857 2.857 0 0 0 5.714 30h38.572a2.857 2.857 0 0 0 2.857-2.857V16.429zm0-10v-.715a2.857 2.857 0 0 0-2.857-2.857H5.714a2.857 2.857 0 0 0-2.857 2.857v.715h44.286zM5.714 0h38.572A5.714 5.714 0 0 1 50 5.714v21.429a5.714 5.714 0 0 1-5.714 5.714H5.714A5.714 5.714 0 0 1 0 27.143V5.714A5.714 5.714 0 0 1 5.714 0zm2.143 27.857a1.429 1.429 0 0 1 0-2.857H15a1.429 1.429 0 1 1 0 2.857H7.857zm12.857 0a1.429 1.429 0 0 1 0-2.857h7.143a1.429 1.429 0 1 1 0 2.857h-7.143z"/>
</svg>
