<svg xmlns="http://www.w3.org/2000/svg" width="46" height="43" viewBox="0 0 46 43">
    <path fill="#F06321" fill-rule="nonzero" d="M33.444 18.695c-2.697-.374-4.29-1.929-4.342-2.032a1.134 1.134 0 0 1 0-1.643c.47-.469 1.174-.469 1.643 0 .048.049 1.045.967 2.699 1.294v-5.19c-2.271-.736-4.694-1.794-4.694-4.67 0-2.692 2.2-4.241 4.694-4.608v-.673c0-.645.528-1.173 1.173-1.173.646 0 1.174.528 1.174 1.173v.67c2.085.296 3.53 1.276 3.579 1.325.528.352.704 1.115.293 1.643-.352.528-1.115.704-1.643.294 0 0-.916-.6-2.23-.869V9.43c2.255.736 4.636 1.8 4.636 4.652.05 2.692-2.142 4.241-4.635 4.608v1.259c0 .645-.528 1.173-1.174 1.173a1.177 1.177 0 0 1-1.173-1.173v-1.254zm0-10.027v-4.45c-1.151.228-2.406.846-2.406 2.236 0 1.069.773 1.622 2.406 2.214zm2.347 3.22v4.417c1.135-.236 2.347-.857 2.347-2.223 0-1.056-.754-1.61-2.347-2.193zM11.723 23.892l8.871-6.934c1.585-1.233 3.814-1.115 5.281.293 1.408 1.408 1.526 3.638.352 5.222l-4.224 5.691h11.5l6.512-4.694a3.798 3.798 0 0 1 4.694.235A3.627 3.627 0 0 1 46 26.462c0 1.056-.41 2.112-1.173 2.816L34.089 39.546c-.176.235-.47.352-.762.352H11.735v1.76c0 .646-.528 1.174-1.174 1.174H1.173A1.177 1.177 0 0 1 0 41.658V24.056c0-.645.528-1.173 1.173-1.173h9.388c.59 0 1.08.44 1.162 1.008zm.012 2.945v10.715h21.122l10.385-9.916c.294-.293.47-.645.47-1.056 0-.41-.176-.763-.47-1.056a1.34 1.34 0 0 0-1.76-.059l-6.806 4.87c-.176.118-.41.235-.704.235H19.597c-.47 0-.88-.235-1.056-.646-.176-.41-.176-.88.117-1.232l5.75-7.569c.47-.645.41-1.584-.176-2.112a1.62 1.62 0 0 0-2.17-.117l-10.21 7.862c-.038.03-.077.057-.117.081zM2.347 40.485h7.04V25.23h-7.04v15.255zm3.52-4.694c.646 0 1.174.528 1.174 1.173 0 .646-.528 1.174-1.174 1.174a1.177 1.177 0 0 1-1.173-1.174c0-.645.528-1.173 1.173-1.173z"/>
</svg>
