<svg xmlns="http://www.w3.org/2000/svg" width="411" height="243" viewBox="0 0 411 243">
    <g fill="none" fill-rule="evenodd">
        <path fill="#F06321" d="M71.853 49.632c38.26 9.756 68.77 4.944 91.531-14.438C197.526 6.123 222.92-12.172 272.202 24.28c49.284 36.451 46.509 44.957 96.16 49.838 49.65 4.88 53.51 120.66 20.856 153.462-32.653 32.8-167.034-83.699-204.006-50.636-36.971 33.063-127.656 81.38-161.5 53.895-33.843-27.485-19.54-72.617-11.497-97.03 8.042-24.414-33.768-78.488 3.484-87.97 24.834-6.321 43.553-5.057 56.154 3.793z" opacity=".101"/>
        <g fill-rule="nonzero" transform="translate(44)">
            <circle cx="272.5" cy="85.5" r="7.5" fill="#AE282E" opacity=".4"/>
            <circle cx="109" cy="40" r="11" fill="#AE282E" opacity=".4"/>
            <circle cx="88.5" cy="44.5" r="7.5" fill="#AE282E" opacity=".4"/>
            <path fill="#3F3D56" d="M279.296 171.718C273.22 178.346 273 188 273 188s9.63-1.091 15.704-7.718C294.78 173.654 295 164 295 164s-9.63 1.091-15.704 7.718z"/>
            <path fill="#AE282E" d="M282.587 174.303c-1.794 8.836-9.335 14.697-9.335 14.697s-4.633-8.466-2.84-17.303c1.795-8.836 9.336-14.697 9.336-14.697s4.633 8.466 2.84 17.303z"/>
            <path fill="#004A7F" d="M275 82v105.852L239.682 217H59V106.034L111.72 82z"/>
            <path fill="#3B566A" d="M275 82v.424l-12.679 8.466L239.682 106H59l52.72-24z"/>
            <path fill="#233847" d="M274 82v105.852L239 217l.254-111.222 22.181-14.875L273.797 82z"/>
            <path fill="#2F2E41" d="M226.437 97H117l8.144-5H230zM321.98 223s2.157 8.861.197 9.246c-1.961.386-11.57.261-13.922.646-2.353.386-7.255-.26-7.255-1.994s5.098-2.89 5.098-2.89 7.255-3.852 7.451-4.045c.196-.192 8.432-.963 8.432-.963z"/>
            <path fill="#575A89" d="M320.11 169.976s-.596 6.634-.596 7.22c0 .584.595 9.755 0 10.145-.595.39.397 3.122.397 4.098s3.174 17.17 2.38 23.415c-.793 6.244 1.19 5.658.596 6.244-.595.585-.595.585-.595 1.756 0 1.17-6.349 2.146-6.349 2.146L309 181.878 312.57 169l7.54.976z"/>
            <path fill="#000" d="M320.11 169.976s-.596 6.634-.596 7.22c0 .584.595 9.755 0 10.145-.595.39.397 3.122.397 4.098s3.174 17.17 2.38 23.415c-.793 6.244 1.19 5.658.596 6.244-.595.585-.595.585-.595 1.756 0 1.17-6.349 2.146-6.349 2.146L309 181.878 312.57 169l7.54.976z" opacity=".1"/>
            <path fill="#2F2E41" d="M319.13 225.046s1.957 7.369 0 7.778c-1.956.41-11.543-.469-13.89-.06-2.349.41-7.24.47-7.24-1.372 0-1.843 5.087-3.07 5.087-3.07s7.24-4.094 7.435-4.299c.195-.205 8.608 1.023 8.608 1.023z"/>
            <path fill="#575A89" d="M322.077 163s2.314 5.613-.385 8.516c-2.7 2.903-5.783 8.71-5.783 9.097 0 .387 5.397 38.903 4.626 41.42-.771 2.515-.578 4.064-.385 4.45.192.388-1.928 2.517-4.241 2.517-2.314 0-5.784-1.742-6.17-3.29-.385-1.549.58-14.904.386-17.42-.192-2.516-1.156-6.193-1.542-6.967-.385-.775-2.506-1.549-2.891-3.871-.386-2.323-3.47-31.936-2.506-32.904.964-.967 18.891-1.548 18.891-1.548z"/>
            <circle cx="307.5" cy="111.5" r="6.5" fill="#FFB9B9"/>
            <path fill="#FFB9B9" d="M311 114.918s-1.37 7.314-.391 8.105c.978.79-7.432 1.977-7.432 1.977s-.978-9.687-1.174-10.675c-.196-.988 8.997.593 8.997.593z"/>
            <path fill="#AE282E" d="M302.64 124.23s2.294-6.83 11.66-4.88c0 0 1.721.586 1.148 1.172-.574.585-1.147.585-.382 1.17.764.586 1.72 0 1.147.586-.574.585 5.161 4.098 4.779 10.734-.383 6.635 1.338 16.002 0 17.564-1.339 1.56.955 8.391.573 9.757-.382 1.366 2.294 3.123 1.147 3.708-1.147.586-21.793 4.099-22.366 0-.574-4.098-.191-1.17-.765-2.146-.573-.976-.764-2.733-.382-4.88.382-2.146 1.338-7.415.956-9.367-.383-1.951 0-18.344 1.147-20.296 1.147-1.951 1.338-3.122 1.338-3.122z"/>
            <path fill="#FFB9B9" d="M305.983 171.373S308.697 182 305.259 182c-3.438 0-3.257-11-3.257-11l3.98.373z"/>
            <path fill="#2F2E41" d="M304 111.963c0 .552.794.902 2.025.982h.002c.522.03 1.045.02 1.565-.03.787-.073 1.112.67 1.246 1.652.22 1.619-.087 3.888.267 4.243.487.491 4.044-.002 5.155-1.114.173-.156.289-.367.327-.597.117-.68.45-1.303.95-1.775.655-.72 1.59-1.52 2.642-2.79 1.89-2.282 0-2.473-.567-4.184-.567-1.712-1.512-2.283-1.512-3.424 0-1.14-4.349-2.092-7.94-1.902-3.593.19-2.837 4.755-2.837 4.755s-.213.552-.468 1.263c-.346.893-.626 1.81-.84 2.743a1.39 1.39 0 0 0-.015.178z"/>
            <path fill="#000" d="M304.705 127.002s6.334-.388 6.893 9.322c.558 9.71.372 18.838.372 19.032 0 .194-2.608 18.644-5.03 18.644s-4.285-.388-4.843-1.36c-.56-.97 1.49-14.953 1.49-14.953s.931-14.76-.559-19.42c-1.49-4.662-1.677-10.682 1.677-11.265z" opacity=".1"/>
            <path fill="#AE282E" d="M303.705 126.002s6.334-.388 6.893 9.322c.558 9.71.372 18.838.372 19.032 0 .194-2.608 18.644-5.03 18.644s-4.285-.388-4.843-1.36c-.56-.97 1.49-14.953 1.49-14.953s.931-14.76-.559-19.42c-1.49-4.662-1.677-10.682 1.677-11.265z"/>
            <path fill="#FFB9B9" d="M195 31.785s-2.645-7.742-4.554-5.313C188.536 28.9 193.384 33 193.384 33L195 31.785z"/>
            <path fill="#F06321" d="M208.302 23l-1.714.656s-.818 3.758-.502 4.412c.317.654.475.164 0 1.471-.474 1.308-1.899 4.742-2.057 5.232-.158.49-9.18-3.106-9.18-4.905 0 0-1.9 2.29-2.849 2.78 0 0 10.446 7.847 11.87 8.828 1.425.981 2.216.49 3.483-.654C208.619 39.676 214 30.193 214 30.193L208.302 23z"/>
            <path fill="#2F2E41" d="M203.26 80.017s.158 1.743.474 1.901c.316.159 2.683 4.12 0 4.912-2.683.793-4.261.476-4.893.793-.631.316-11.68.95-11.838-.793-.158-1.743 5.367-2.06 5.367-2.06s5.05-3.327 5.84-5.07c.789-1.743 5.05.317 5.05.317zM235.978 83s3.825 6.436 2.869 7.22c-.957.785-10.269 3.646-11.634 3.768-1.753.157-3.028-1.256-1.593-2.04 1.434-.786 4.462-4.082 4.462-5.18v-2.826l5.896-.942z"/>
            <path fill="#2F2E41" d="M239.953 41s3.338 4.154-1.907 10.864l-8.74 11.183s5.403 8.628 5.562 13.101c.16 4.473 1.271 3.515 1.59 5.432.317 1.917 1.747.959.635 2.397-1.112 1.437-5.244 2.715-6.516 1.597a3.972 3.972 0 0 1-1.27-3.195c0-.64-2.226-4.314-2.385-5.432-.158-1.118-6.038-10.225-6.038-10.225s-1.907-5.432.318-8.467c2.224-3.036 3.694-7.341 3.694-7.341s-6.555 7.98-11.163 9.897c0 0-1.749.32-1.43 1.118.317.799 0 1.278-.477 2.077-.477.799-3.814 10.065-4.927 12.462-1.112 2.396-.635 3.834-1.907 4.633-1.271.799-6.992.16-6.992-.64 0-.798.795-2.875 1.271-3.993.477-1.119 4.291-14.06 3.973-16.296-.318-2.237.16-5.273 2.543-6.55 2.384-1.279 14.461-11.663 15.097-11.663.635 0 19.07-.959 19.07-.959z"/>
            <circle cx="207.5" cy="8.5" r="6.5" fill="#FFB9B9"/>
            <path fill="#FFB9B9" d="M212.747 10s2.148 3.68 4.792 4.16c2.644.48-6.94 7.84-6.94 7.84s-2.314-7.04-4.297-7.36c-1.983-.32 6.445-4.64 6.445-4.64z"/>
            <path fill="#F06321" d="M206 24.618c0 2.056 6.278 7.908 6.278 7.908l5.957 4.903s.16 1.74.804 1.898c.644.158 1.45.158.805 1.107-.644.95-2.253 3.005-.805 3.322.437.065.877.106 1.319.123.386.022.84.043 1.35.062 1.192.04 2.682.068 4.297.056.459-.001.926-.006 1.4-.015 6.087-.119 13.138-.807 12.562-3.073-.966-3.796-.322-5.061-2.415-7.117-2.093-2.057-5.473-9.174-5.473-9.174s-6.761-11.229-12.396-11.229l-1.17-.302a2.703 2.703 0 0 0-2.925 1.104c-1.13 1.69-2.912 4.23-3.954 5.05-1.61 1.265-1.86.357-1.86.357S206 22.562 206 24.618z"/>
            <path fill="#FFB9B9" d="M220.492 49s-4.279 7.529-1.623 8.867c2.656 1.338 4.131-7.863 4.131-7.863L220.492 49z"/>
            <path fill="#2F2E41" d="M211.811 8.19c-.262-.032-.345-.354-.39-.608-.236-1.357-1.277-2.645-2.675-2.864a3.893 3.893 0 0 0-1.594.125 6.12 6.12 0 0 0-2.046.979 3.39 3.39 0 0 1-1.022.624c-.257.073-1.346.544-1.6.624-.56.175-1.024.744-1.6.632-.552-.108-.761-.756-.85-1.296-.202-1.23.523-3.065 1.243-4.096.546-.782 1.471-1.232 2.396-1.525a17.651 17.651 0 0 1 3.323-.642c1.521-.174 3.096-.267 4.554.19 1.457.457 2.785 1.575 3.057 3.04.057.306.067.618.137.92.17.74.672 1.36.965 2.061a3.866 3.866 0 0 1-.125 3.216c-.406.793-1.112 1.556-.96 2.43l-1.256-.963a.876.876 0 0 1-.419-1.038l.183-1.53a1.31 1.31 0 0 0-.082-.826c-.558-.949-.801.6-1.239.547z"/>
            <path fill="#000" d="M224.082 37.647l-1.475 6.291c1.488.055 3.456.084 5.542.042a69.21 69.21 0 0 0 1.415-4.887c1.41-5.783-.94-14.617-2.193-18.793-1.253-4.176-4.385-5.3-4.385-5.3a14.161 14.161 0 0 0-3.603 1.927c-2.036 1.446 4.7 20.72 4.7 20.72z" opacity=".1"/>
            <path fill="#000" d="M222.21 37.27l-1.504 6.606c.368.023.8.044 1.286.063 1.134.042 2.553.07 4.09.058.553-1.735 1.088-3.565 1.491-5.27 1.38-5.832-.92-14.742-2.145-18.954-1.226-4.213-3.908.405-3.908.405s1.073-2.755-.92-1.296c-1.991 1.458 1.61 18.387 1.61 18.387z" opacity=".1"/>
            <path fill="#F06321" d="M221.986 15s3.132 1.121 4.385 5.286c1.253 4.164 3.602 12.974 2.193 18.74-1.41 5.766-4.386 12.974-4.386 12.974s-2.975-2.242-4.072-1.762l2.976-12.654s-6.735-19.22-4.699-20.662A14.174 14.174 0 0 1 221.986 15z"/>
            <path fill="#FFF" d="M224 95L179.84 3 106 38.425 133.156 95z"/>
            <path fill="#F06321" d="M126.127 57.925l39.171-18.776 1.167 2.428-39.172 18.776zM136.498 79.512l39.171-18.776 1.167 2.428-39.172 18.776zM173.068 31.109l9.725-4.662 4.667 9.714-9.725 4.662zM183.439 52.696l9.725-4.662 4.667 9.714-9.725 4.662z"/>
            <path fill="#38364D" d="M182.94 20l-3.925 11.208-5.29-1.866L173 31.41l7.344 2.59L185 20.727zM193.94 41l-3.925 11.208-5.29-1.866L184 52.41l7.344 2.59L196 41.727z"/>
            <g transform="translate(0 105)">
                <path fill="#F2F2F2" d="M24.18 91.698L4.255 95.954 0 76.031l19.924-4.256z"/>
                <path fill="#FFB9B9" d="M23.625 66.451s-7.318 5.228-4.878 7.318c2.439 2.091 7.318-6.272 7.318-6.272l-2.44-1.046zM57.427 74.466S56.033 91.89 55.685 94.33c-.349 2.44-.697 24.394-1.394 26.833-.697 2.44-1.394 8.363-1.394 8.363h-4.182s.349-10.802-.697-14.984c-1.045-4.182-.696-15.681-.696-15.681S45.23 78.3 46.276 75.512c1.046-2.788 11.151-1.046 11.151-1.046z"/>
                <path fill="#2F2E41" d="M51.852 128.48s1.742 1.045 1.742 1.742c0 .697-.348 2.44 0 3.136.349.697 2.788 3.485 1.394 4.182-1.394.697-7.666 0-7.666 0s.348-4.878.696-5.227c.349-.348-.348-3.833-.348-3.833h4.182z"/>
                <path fill="#FFB9B9" d="M30.788 74.04s-.442 17.473-.352 19.936c.09 2.462-1.867 24.331-1.43 26.83.437 2.5.508 8.464.508 8.464l4.159.439s.787-10.78 2.266-14.829c1.478-4.049 2.339-15.521 2.339-15.521s4.237-20.227 3.49-23.11c-.747-2.882-10.98-2.21-10.98-2.21z"/>
                <path fill="#2F2E41" d="M30.664 128.34s-1.843.856-1.916 1.55c-.073.693.09 2.462-.33 3.118-.419.657-3.137 3.173-1.824 4.013 1.313.84 7.624.804 7.624.804s.165-4.888-.145-5.27c-.31-.384.75-3.776.75-3.776l-4.16-.44zM52.549 48.33s2.787.35 3.833 6.273c1.045 5.924 4.879 20.909 1.742 21.954-3.136 1.046-12.545 3.136-12.893 2.44-.349-.697-1.046-2.44-1.046-2.44s1.046 3.136-.348 3.136c-1.394 0-14.985-2.09-14.636-3.136.348-1.045 1.045-8.712 1.045-8.712s2.091-12.893 4.182-14.984a5.715 5.715 0 0 0 1.742-4.53H52.55z"/>
                <path fill="#FFB9B9" d="M57.776 45.543s-4.53-1.045-5.227.348c-.697 1.394 1.742 3.485 2.787 3.485 1.046 0 2.788-1.045 2.788-1.045l-.348-2.788z"/>
                <circle cx="48.367" cy="9.65" r="6.273" fill="#FFB9B9"/>
                <path fill="#FFB9B9" d="M47.322 14.18s-1.046 4.879-.349 4.879c.697 0-5.227 3.136-5.227 3.136l-4.53-.697-1.394-2.09s7.318-4.88 7.318-7.667c0-2.788 4.182 2.44 4.182 2.44z"/>
                <path fill="#AE282E" d="M44.185 19.059s1.046-.697 1.394-.697h2.788c.348 0 4.879 1.045 4.879 1.045l2.787 15.682s-4.878 8.015-1.394 14.287c0 0-1.045-.697-5.924-.348-4.878.348-13.59 1.394-13.939 1.394-.348 0-.348-2.788 0-3.485.349-.697-.348-.349-.348-2.091 0-1.742-1.045-4.879-1.045-4.879l-4.88-17.772s6.273-3.485 7.319-3.136c1.045.348 4.182 1.394 4.879 1.045.696-.348 3.484-1.045 3.484-1.045z"/>
                <path fill="#AE282E" d="M52.2 19.756l1.046-.349s2.09-.348 4.53 1.743c2.44 2.09 11.5 8.363 11.5 8.363s3.484 2.788 2.439 5.924c-1.046 3.136-2.788 10.803-8.015 10.454 0 0-3.136 4.182-4.879 3.485-1.742-.697-3.136-3.485-2.09-3.833 1.045-.349 3.833-3.833 3.833-3.833l-3.485-6.621h-1.046L52.2 32.998V19.756zM31.292 21.847l-2.788.348s-2.44 1.046-2.09 5.576c.348 4.53-2.092 25.09-1.046 27.53 0 0-3.485 11.847-2.788 12.196.697.348 4.879 2.44 4.53 1.045-.348-1.394 3.833-11.15 3.833-11.15s4.879-5.228 2.788-12.546v-5.924l-2.44-17.075z"/>
                <path fill="#2F2E41" d="M53.587 15.715l-4.43.965-.569-2.182.219 2.258-7.147 1.557-.314-1.204.12 1.246-4.576.997-.98-9.4c-1.006-3.856 2.668-7.967 6.525-8.974l1.71-.447c2.834-.739 7.983-.067 8.723 2.766-1.295 4.94-3.5 10.354.72 12.418z"/>
            </g>
        </g>
    </g>
</svg>
