<svg xmlns="http://www.w3.org/2000/svg" width="24" height="16" viewBox="0 0 24 16">
    <g fill="#F26421" fill-rule="evenodd">
        <path d="M2.257 8l4.773 4.773a.75.75 0 1 1-1.06 1.06L.666 8.53a.75.75 0 0 1 0-1.06L5.97 2.166a.75.75 0 1 1 1.06 1.061L2.257 8zM21.743 8l-4.773 4.773a.75.75 0 1 0 1.06 1.06l5.304-5.303a.75.75 0 0 0 0-1.06L18.03 2.166a.75.75 0 1 0-1.06 1.061L21.743 8zM14.855.436a.75.75 0 0 1 .465.953L10.599 15.1a.75.75 0 1 1-1.419-.488L13.901.9a.75.75 0 0 1 .954-.465z"/>
    </g>
</svg>
