<svg xmlns="http://www.w3.org/2000/svg" width="632" height="277" viewBox="0 0 632 277">
    <g fill="none" fill-rule="evenodd">
        <g fill-rule="nonzero">
            <path fill="#FFF" stroke="#DEDEDE" d="M31.5 276.5h569V27C600.5 12.364 588.636.5 574 .5H58C43.364.5 31.5 12.364 31.5 27v249.5z"/>
            <path fill="#F4FAFF" d="M60 10h512c10.493 0 19 8.507 19 19v248H41V29c0-10.493 8.507-19 19-19z"/>
            <path stroke="#DEDEDE" stroke-linecap="square" d="M.5 276.5h631"/>
        </g>
        <path fill="#FFF0F0" fill-rule="nonzero" d="M60 10h8v267H41V29c0-10.493 8.507-19 19-19z"/>
        <text fill="#AE282E" font-family="Lato-Regular, Lato" font-size="10" transform="translate(41 10)">
            <tspan x="14.2" y="33">1</tspan> <tspan x="14.2" y="55">2</tspan> <tspan x="14.2" y="77">3</tspan> <tspan x="14.2" y="99">5</tspan> <tspan x="14.2" y="121">6</tspan> <tspan x="14.2" y="143">7</tspan> <tspan x="14.2" y="165">8</tspan> <tspan x="14.2" y="187">9</tspan> <tspan x="8.4" y="209">10</tspan> <tspan x="8.4" y="231">11</tspan>
        </text>
        <text font-family="Lato-Regular, Lato" font-size="12" letter-spacing="1">
            <tspan x="83" y="31" fill="#004A7F">$item1</tspan> <tspan x="126.608" y="31" fill="#A5A5A5"> </tspan> <tspan x="129.924" y="31" fill="#212121">=</tspan> <tspan x="137.884" y="31" fill="#A5A5A5"> </tspan> <tspan x="141.2" y="31" fill="#FF9696">new</tspan> <tspan x="166.352" y="31" fill="#A5A5A5"> </tspan> <tspan x="169.668" y="31" fill="#212121">Item();</tspan>  <tspan x="83" y="56" fill="#004A7F">$item1</tspan> <tspan x="126.608" y="56" fill="#212121">-&gt;setName(&apos;</tspan> <tspan x="202.084" y="56" fill="#FF9696">Ground Coffee 40 oz</tspan> <tspan x="330.092" y="56" fill="#212121">&apos;)</tspan> <tspan x="83" y="81" fill="#A5A5A5"> </tspan> <tspan x="96.264" y="81" fill="#212121">-&gt;setCurrency(&apos;</tspan> <tspan x="193.992" y="81" fill="#FF9696">USD</tspan> <tspan x="220.872" y="81" fill="#212121">&apos;)</tspan>  <tspan x="83" y="106" fill="#A5A5A5"> </tspan> <tspan x="96.264" y="106" fill="#212121">-&gt;setQuantity(</tspan> <tspan x="188.132" y="106" fill="#004A7F">1</tspan> <tspan x="196.092" y="106" fill="#212121">)</tspan>  <tspan x="83" y="131" fill="#A5A5A5"> </tspan> <tspan x="96.264" y="131" fill="#212121">-&gt;setSku(&quot;</tspan> <tspan x="161.044" y="131" fill="#FF9696">123123</tspan> <tspan x="208.804" y="131" fill="#212121">&quot;) // Similar to `item_number` in Classic API</tspan>  <tspan x="83" y="156" fill="#A5A5A5"> </tspan> <tspan x="96.264" y="156" fill="#212121">-&gt;setPrice(</tspan> <tspan x="165.092" y="156" fill="#004A7F">7.5</tspan> <tspan x="184.556" y="156" fill="#212121">);</tspan>  <tspan x="83" y="181" fill="#004A7F">$item2</tspan> <tspan x="126.608" y="181" fill="#A5A5A5"> </tspan> <tspan x="129.924" y="181" fill="#212121">=</tspan> <tspan x="137.884" y="181" fill="#A5A5A5"> </tspan> <tspan x="141.2" y="181" fill="#EAAC0B">new</tspan> <tspan x="166.352" y="181" fill="#A5A5A5"> </tspan> <tspan x="169.668" y="181" fill="#212121">Item();</tspan>  <tspan x="83" y="206" fill="#004A7F">$item2 </tspan> <tspan x="129.924" y="206" fill="#212121">-&gt;setName(&apos;</tspan> <tspan x="205.4" y="206" fill="#FF9696">Granola bars</tspan> <tspan x="284.552" y="206" fill="#212121">&apos;)</tspan> <tspan x="83" y="231" fill="#212121"> -&gt;setCurrency(&apos;</tspan> <tspan x="193.992" y="231" fill="#FF9696">USD</tspan> <tspan x="220.872" y="231" fill="#212121">&apos;)</tspan> <tspan x="83" y="256" fill="#212121"> -&gt;setQuantity(</tspan> <tspan x="188.132" y="256" fill="#004A7F">5</tspan> <tspan x="196.092" y="256" fill="#212121">)</tspan>
        </text>
    </g>
</svg>
