<svg xmlns="http://www.w3.org/2000/svg" xmlns:xlink="http://www.w3.org/1999/xlink" width="40" height="40" viewBox="0 0 40 40">
    <defs>
        <path id="a" d="M22.938 24.05a5.955 5.955 0 0 1 5.412 5.923v2.877a.586.586 0 0 1-.586.586H11.837a.586.586 0 0 1-.586-.586v-2.877a5.955 5.955 0 0 1 5.41-5.923.589.589 0 0 1 .254-.018h.03a4.077 4.077 0 0 1-1.235-2.924v-3.169a3.257 3.257 0 0 1 3.254-3.253h4.34c.324 0 .586.262.586.586v5.836c0 1.144-.473 2.18-1.234 2.923l.03.002a.588.588 0 0 1 .252.017zm-6.056-5.29v.103h4.4c.791 0 1.436-.645 1.436-1.437v-1.568h-3.754a2.084 2.084 0 0 0-2.082 2.081v.821zm0 2.348a2.921 2.921 0 0 0 2.918 2.918 2.921 2.921 0 0 0 2.918-2.918v-1.506a2.593 2.593 0 0 1-1.437.433h-4.399v1.073zm4.474 4.09h-3.112l1.556 1.556 1.556-1.557zm5.822 7.066v-2.291a4.782 4.782 0 0 0-4.2-4.74l-2.764 2.764a.584.584 0 0 1-.828 0l-2.764-2.764a4.783 4.783 0 0 0-4.165 4.173h4.747a.586.586 0 0 1 0 1.172h-4.782v1.686h14.756zm-6.964-2.686a.59.59 0 0 1 .172.414.59.59 0 0 1-.586.586.59.59 0 0 1-.586-.586.59.59 0 0 1 .586-.586.59.59 0 0 1 .414.172zM19.807 6.6a2.23 2.23 0 0 1 2.227 2.227 2.23 2.23 0 0 1-1.64 2.147v1.431a.586.586 0 0 1-1.172 0v-1.43a2.23 2.23 0 0 1-1.641-2.148A2.23 2.23 0 0 1 19.807 6.6zm0 3.281a1.056 1.056 0 0 0 0-2.11 1.056 1.056 0 0 0 0 2.11zm11.763 1.29c.421.42.653.98.653 1.574 0 .595-.232 1.154-.653 1.574-.42.42-.98.652-1.574.652-.394 0-.772-.102-1.105-.293L27.88 15.69a.584.584 0 0 1-.829 0 .586.586 0 0 1 0-.829l1.012-1.012a2.23 2.23 0 0 1 .359-2.679c.42-.42.98-.652 1.574-.652.595 0 1.154.232 1.574.652zm-.828 2.32c.2-.2.309-.464.309-.746s-.11-.547-.31-.746a1.051 1.051 0 0 0-.745-.308 1.056 1.056 0 1 0 .746 1.8zm1.831 7.22a2.23 2.23 0 0 1 2.227 2.227 2.23 2.23 0 0 1-2.227 2.226 2.23 2.23 0 0 1-2.147-1.64h-1.431a.586.586 0 0 1 0-1.172h1.43a2.23 2.23 0 0 1 2.148-1.64zm0 3.282a1.056 1.056 0 0 0 0-2.11 1.056 1.056 0 0 0 0 2.11zm-5.386-1.47a.59.59 0 0 1-.414 1 .588.588 0 0 1-.415-1 .59.59 0 0 1 .415-.171.59.59 0 0 1 .414.171zm-16.582-.186a.586.586 0 0 1 0 1.172h-1.43a2.23 2.23 0 0 1-2.148 1.64A2.23 2.23 0 0 1 4.8 22.924a2.23 2.23 0 0 1 2.227-2.227 2.23 2.23 0 0 1 2.147 1.641h1.431zm-3.578 1.64a1.056 1.056 0 0 0 0-2.109 1.056 1.056 0 0 0 0 2.11zm5.486-9.172a.586.586 0 0 1-.828.828l-1.012-1.011c-.333.19-.71.293-1.105.293a2.212 2.212 0 0 1-1.574-.652 2.23 2.23 0 0 1 0-3.15c.42-.42.98-.651 1.574-.651.595 0 1.154.231 1.575.652.42.42.652.98.652 1.574 0 .394-.102.772-.293 1.105l1.011 1.012zm-2.199-1.371c.2-.2.31-.464.31-.746 0-.281-.11-.546-.31-.745a1.051 1.051 0 0 0-.746-.309 1.056 1.056 0 1 0 .746 1.8zM20 40C8.954 40 0 31.046 0 20S8.954 0 20 0s20 8.954 20 20-8.954 20-20 20zm0-.976c10.507 0 19.024-8.517 19.024-19.024C39.024 9.493 30.507.976 20 .976 9.493.976.976 9.493.976 20 .976 30.507 9.493 39.024 20 39.024z"/>
    </defs>
    <g fill="none" fill-rule="evenodd" transform="translate(.2)">
        <mask id="b" fill="#fff">
            <use xlink:href="#a"/>
        </mask>
        <use fill="#004A7F" fill-rule="nonzero" xlink:href="#a"/>
        <g fill="#004A7F" mask="url(#b)">
            <path d="M0 0h40v40H0z"/>
        </g>
    </g>
</svg>
