<svg xmlns="http://www.w3.org/2000/svg" width="41" height="50" viewBox="0 0 41 50">
    <path fill="#F26421" fill-rule="nonzero" d="M1.425 23.575h25.153l-7.18-7.178a1.424 1.424 0 1 1 2.015-2.014l9.61 9.609c.01.008.014.019.023.027.056.06.109.122.154.19.028.04.047.084.07.128.02.038.044.075.06.116.022.052.036.106.05.16.011.035.025.07.032.107.019.092.029.185.029.279l-.002.015c-.001.088-.009.176-.026.263-.01.048-.027.093-.042.14-.012.042-.022.085-.039.126-.023.057-.055.11-.085.163-.015.027-.027.055-.044.082-.054.08-.115.155-.183.223l-9.605 9.606a1.422 1.422 0 0 1-2.015 0 1.424 1.424 0 0 1 0-2.015l7.176-7.177H1.425a1.425 1.425 0 1 1 0-2.85zm10.46 10.545c.787 0 1.425.638 1.425 1.425v10.18c0 .786.639 1.425 1.425 1.425h21.456c.786 0 1.424-.639 1.424-1.424V4.274c0-.785-.638-1.424-1.424-1.424H14.735c-.786 0-1.425.639-1.425 1.424v9.802a1.425 1.425 0 1 1-2.85 0V4.274A4.279 4.279 0 0 1 14.736 0h21.456a4.279 4.279 0 0 1 4.274 4.274v41.452A4.279 4.279 0 0 1 36.191 50H14.735a4.279 4.279 0 0 1-4.274-4.274V35.545c0-.787.638-1.425 1.424-1.425z"/>
</svg>
