<svg xmlns="http://www.w3.org/2000/svg" width="199" height="39" viewBox="0 0 199 39">
    <g fill="none" fill-rule="nonzero">
        <path fill="#FFF" d="M36 39h6.727L48 19h-6.658zM71 39h6.727L83 19h-6.727zM106 39h6.172L117 19h-6.233zM64.994 25.776h6.833C72.765 21.281 69.885 19 63.186 19c-7.772 0-12.995 3.824-14.803 10.335C46.84 35.374 49.99 39 57.29 39c7.37 0 11.722-2.281 13.534-7.45h-6.834c-1.004 2.28-2.745 3.421-5.156 3.421-3.285 0-4.624-2.013-3.62-5.837 1.072-3.962 3.62-6.176 6.901-6.176 2.143 0 3.08.94 2.88 2.818M99.005 25.776h6.825c.937-4.495-2.01-6.776-8.702-6.776-7.695 0-12.979 3.824-14.718 10.335C80.805 35.374 83.948 39 91.242 39c7.294 0 11.642-2.281 13.515-7.45h-6.823c-.94 2.28-2.745 3.421-5.153 3.421-3.278 0-4.615-2.013-3.549-5.837 1.007-3.962 3.549-6.176 6.826-6.176 2.144 0 3.147.94 2.947 2.818"/>
        <path fill="#F06321" d="M10.188 8.488C19.091-.369 29.891-2.668 34.213 3.37c4.322 6.038.524 18.24-8.379 27.099-8.902 8.923-19.703 11.219-24.09 5.116-4.253-6.1-.455-18.241 8.444-27.096"/>
        <path fill="#AE282E" d="M16.533 3.756c-.962.724-1.923 1.579-2.885 2.503C6.015 14.02 2.806 24.68 6.592 30.01c3.911 5.328 13.275 3.354 21.1-4.476 4.235-4.21 7.056-9.08 8.21-13.618.32-3.355-.128-6.318-1.603-8.554-3.334-4.736-10.518-4.345-17.766.394"/>
        <path fill="#FFF" d="M28 4.761v.197c-.067 1.112-.738 2.485-1.946 3.663-1.811 1.7-4.226 2.354-5.236 1.376-1.14-1.046-.466-3.339 1.345-5.17 1.879-1.766 4.294-2.355 5.3-1.309.336.328.537.72.537 1.243m-6.978 30.034c-4.297 3.14-8.725 4.713-13.022 4.059 1.811.065 3.29-1.9 4.498-4.517 1.208-2.682 1.88-5.167 2.483-7.525.872-3.729.94-6.345.47-6.934-.738-.92-2.349-.72-4.23.327-.94.523-2.148.196-.735-1.505 1.476-1.7 7.179-5.759 9.191-6.413 2.285-.589 4.834.262 3.962 2.682-.607 1.766-8.524 21.92-2.617 19.826M127.05 35.777l1.526-5.77h3.718v-3.085h-2.855l1.328-4.9h1.527V19h-5.049L122 39h10.294v-3.223h-5.245zm5.244-5.77h.73c3.39 0 4.983.605 4.32 2.952-.532 2.08-2.191 2.818-5.05 2.818V39c2.792 0 4.85-.268 6.908-1.68a6.738 6.738 0 0 0 2.792-3.958c.727-2.75-.468-4.632-3.588-5.031 2.921-.537 4.783-2.083 5.378-4.498.53-1.811.066-3.153-1.195-4.025-1.063-.738-2.855-.808-5.246-.808h-5.049v3.022h2.593c3.187 0 4.647.402 4.183 2.415-.598 1.945-2.324 2.485-5.577 2.485h-1.199v3.086zM150.698 25.26v2.372c-.506.26-.95.71-1.14 1.351h-3.8c.63-1.861 2.343-3.149 4.94-3.723zm0 11.237c-.443.128-.95.192-1.456.192-1.71 0-2.471-.71-2.09-1.993.38-1.476 1.52-1.99 3.546-2.182v-2.247c-4.374.32-6.78 1.476-7.54 4.365-.698 2.632.952 4.368 4.373 4.368 1.14 0 2.217-.193 3.167-.578v-1.925zm3.678-3.983l-.064.192c-.506 1.99-1.84 3.341-3.614 3.79v1.926a8.171 8.171 0 0 0 2.534-1.604l-.316 1.861h3.803c.19-.902.38-1.929.634-2.956l1.457-5.392c.127-.45.19-.899.19-1.348v-.642c-.127-2.186-1.964-3.341-5.384-3.341-1.08 0-2.03.128-2.918.26v2.372c.57-.318 1.267-.446 2.157-.446 1.961 0 2.724.895 2.151 2.824l-.06.193h-2.03c-.757 0-1.52.064-2.218.064v2.247h3.678zM161 39h3.943l1.872-7.033c.646-2.496 2.906-4.273 5.296-4.273 2.325 0 3.168 1.382 2.393 4.142L172.628 39h3.942l2.196-8.347c.904-3.547-.84-5.653-4.714-5.653-2.522 0-4.524.92-6.268 2.76l.452-2.432h-3.94c-.387 2.168-.645 3.486-.777 4.011L161 39zM180 39h3.988l1.992-7.518L191.363 39h5.512l-6.113-7.987L199 25.038h-5.114l-7.64 5.572L189.3 19h-3.985z"/>
    </g>
</svg>
