<svg xmlns="http://www.w3.org/2000/svg" width="21" height="24" viewBox="0 0 21 24">
    <path fill="#F06321" fill-rule="nonzero" d="M5.496 0v2.196H18.77v15.268H21V2.196c0-.613-.216-1.132-.648-1.558A2.169 2.169 0 0 0 18.77 0H5.496zM2.178 4.391c-.588 0-1.098.213-1.53.639C.216 5.455 0 5.957 0 6.536v15.268c0 .613.216 1.132.648 1.558.432.425.942.638 1.53.638h12.185c.622 0 1.15-.213 1.581-.638.433-.426.649-.945.649-1.558V6.536c0-.579-.216-1.08-.649-1.506a2.169 2.169 0 0 0-1.581-.639H2.178zm0 17.413V6.536h12.185v15.268H2.178z"/>
</svg>
