<?xml version="1.0" encoding="UTF-8"?>
<svg width="22px" height="22px" viewBox="0 0 22 22" version="1.1" xmlns="http://www.w3.org/2000/svg" xmlns:xlink="http://www.w3.org/1999/xlink">
    <!-- Generator: Sketch 55.2 (78181) - https://sketchapp.com -->
    <title>create-an-app-orange</title>
    <desc>Created with Sketch.</desc>
    <g id="Web-Designs" stroke="none" stroke-width="1" fill="none" fill-rule="evenodd">
        <path d="M1.5,0 L8.5,0 C9.32842712,0 10,0.671572875 10,1.5 L10,8.5 C10,9.32842712 9.32842712,10 8.5,10 L1.5,10 C0.671572875,10 0,9.32842712 0,8.5 L0,1.5 C0,0.671572875 0.671572875,0 1.5,0 Z M1.5,1.5 L1.5,8.5 L8.5,8.5 L8.5,1.5 L1.5,1.5 Z M1.5,12 L8.5,12 C9.32842712,12 10,12.6715729 10,13.5 L10,20.5 C10,21.3284271 9.32842712,22 8.5,22 L1.5,22 C0.671572875,22 0,21.3284271 0,20.5 L0,13.5 C0,12.6715729 0.671572875,12 1.5,12 Z M1.5,13.5 L1.5,20.5 L8.5,20.5 L8.5,13.5 L1.5,13.5 Z M16.5,17 L16.5,14.75 C16.5,14.3357864 16.8357864,14 17.25,14 C17.6642136,14 18,14.3357864 18,14.75 L18,17 L20.25,17 C20.6642136,17 21,17.3357864 21,17.75 C21,18.1642136 20.6642136,18.5 20.25,18.5 L18,18.5 L18,20.75 C18,21.1642136 17.6642136,21.5 17.25,21.5 C16.8357864,21.5 16.5,21.1642136 16.5,20.75 L16.5,18.5 L14.25,18.5 C13.8357864,18.5 13.5,18.1642136 13.5,17.75 C13.5,17.3357864 13.8357864,17 14.25,17 L16.5,17 Z M13.5,0 L20.5,0 C21.3284271,0 22,0.671572875 22,1.5 L22,8.5 C22,9.32842712 21.3284271,10 20.5,10 L13.5,10 C12.6715729,10 12,9.32842712 12,8.5 L12,1.5 C12,0.671572875 12.6715729,0 13.5,0 Z M13.5,1.5 L13.5,8.5 L20.5,8.5 L20.5,1.5 L13.5,1.5 Z" id="create-an-app-orange" fill="#FC800E" fill-rule="nonzero"></path>
    </g>
</svg>