<?xml version="1.0" encoding="UTF-8"?>
<svg width="648px" height="334px" viewBox="0 0 648 334" version="1.1" xmlns="http://www.w3.org/2000/svg" xmlns:xlink="http://www.w3.org/1999/xlink">
    <!-- Generator: Sketch 55.2 (78181) - https://sketchapp.com -->
    <title>Group 10m</title>
    <desc>Created with Sketch.</desc>
    <g id="Web-Designs" stroke="none" stroke-width="1" fill="none" fill-rule="evenodd">
        <g id="13-FAQ" transform="translate(-396.000000, -221.000000)">
            <g id="Group-10" transform="translate(396.000000, 221.000000)">
                <path d="M648,92.5815603 C648.018589,72.8533952 644.245879,53.3053217 636.886892,35 L18.8387122,99.8488628 C12.4815487,111.37247 7.61833711,123.65847 4.36643985,136.410369 L195.752675,164.928344 L0,185.740279 C5.88569084,268.093666 76.5252346,333.111274 162.784929,333.111274 C206.218627,333.111274 245.679764,316.624847 274.916905,289.754952 C304.249703,317.125459 344.08784,334 387.982939,334 C453.113791,334 509.331705,296.926632 535.507836,243.327464 C588.023279,226.666667 628.823608,184.829054 642.783836,132.517975 L400.750274,94.9439961 L647.977424,94.9439961 C647.988677,94.1508926 648,93.3690389 648,92.5815603 Z" id="Path" fill="#AE282E" fill-rule="nonzero" opacity="0.1"></path>
                <path d="M30.4730872,77.2146442 C40.6964759,81.7030998 58.767555,83.4119116 73.8512248,83.4119116 C113.718253,83.4119116 149.938939,68.2741394 176.775197,43.6023081 C203.699257,68.7337988 240.265984,84.2279362 280.556525,84.2279362 C340.338991,84.2279362 391.940427,50.1873164 415.967039,0.972771487 C440.806961,-6.91051576 -66.9532207,34.4407981 30.4730872,77.2146442 Z" id="Path" fill="#AE282E" fill-rule="nonzero" opacity="0.1" transform="translate(217.443834, 42.113968) scale(-1, -1) translate(-217.443834, -42.113968) "></path>
                <g id="Group-9" transform="translate(7.000000, 78.000000)">
                    <ellipse id="Oval" fill="#AE282E" fill-rule="nonzero" opacity="0.1" cx="19" cy="137" rx="19" ry="3"></ellipse>
                    <ellipse id="Oval" fill="#AE282E" fill-rule="nonzero" opacity="0.1" cx="93" cy="145" rx="19" ry="3"></ellipse>
                    <ellipse id="Oval" fill="#AE282E" fill-rule="nonzero" opacity="0.1" cx="179" cy="134" rx="19" ry="3"></ellipse>
                    <ellipse id="Oval" fill="#AE282E" fill-rule="nonzero" opacity="0.1" cx="64.5" cy="166.5" rx="13.5" ry="1.5"></ellipse>
                    <ellipse id="Oval" fill="#AE282E" fill-rule="nonzero" opacity="0.1" cx="139.5" cy="163.5" rx="13.5" ry="1.5"></ellipse>
                    <path d="M93.7409482,144 C93.7409482,144 66.983037,56.8194268 97.9342004,21.8833468 C121.092666,-4.2388998 147.374719,-1.1150606 159.149176,2.11789071 C165.313398,3.75075761 170.445917,7.9892088 173.189046,13.7120623 C177.300955,22.5339782 176.56073,36.8519113 147.508935,53.5662696 C98.8655824,81.5474631 95.8558766,119.934719 95.8558766,119.934719 L93.7409482,144 Z" id="Path" fill="#F06321" fill-rule="nonzero"></path>
                    <path d="M155,14 C155,14 75.845042,38.6085193 93.5937052,144" id="Path" stroke="#565987"></path>
                    <path d="M108,23 C108,23 118.744936,30.1904128 115.329567,41" id="Path" stroke="#565987"></path>
                    <path d="M147,29 C147,29 140.235294,22.488598 132,26.0812308" id="Path" stroke="#565987"></path>
                    <path d="M116,63.7974076 C116,63.7974076 104.0798,59.0425927 101,65" id="Path" stroke="#565987"></path>
                    <path d="M86,76.0367514 C86,76.0367514 94.8604015,75.4461619 95,79" id="Path" stroke="#565987"></path>
                    <path d="M92,145 C92,145 123.816531,81.6362456 132.554932,83.0224161 C136.707427,83.6811502 138.618565,87.6780093 139.48126,91.6950749 C140.556109,96.8879994 139.951585,102.279788 137.751742,107.120769 C133.236007,117.260424 121.112869,136.513242 92,145 Z" id="Path" fill="#F06321" fill-rule="nonzero"></path>
                    <path d="M132,94 C132,94 98.476743,141.897101 92,144" id="Path" stroke="#565987"></path>
                    <path d="M136,102 L128,102" id="Path" stroke="#565987"></path>
                    <path d="M126,118 L113,119" id="Path" stroke="#565987"></path>
                    <path d="M119,106 L120,113" id="Path" stroke="#565987"></path>
                    <path d="M105.884014,124 L106.115986,130" id="Path" stroke="#565987"></path>
                    <path d="M93,145 C93,145 61.1867414,81.6362456 52.4481053,83.0224161 C48.2954988,83.6811502 46.3801813,87.6780093 45.5174628,91.6950749 C44.4438782,96.8884172 45.0498626,102.280221 47.2511554,107.120769 C51.7628839,117.260424 63.8904762,136.513242 93,145 Z" id="Path" fill="#F06321" fill-rule="nonzero"></path>
                    <path d="M54,94 C54,94 87.523257,141.897101 94,144" id="Path" stroke="#565987"></path>
                    <path d="M50,102 L58,102" id="Path" stroke="#565987"></path>
                    <path d="M59,118 L72,119" id="Path" stroke="#565987"></path>
                    <path d="M67,106 L66,113" id="Path" stroke="#565987"></path>
                    <path d="M79.1180208,124 L78.8819792,130" id="Path" stroke="#565987"></path>
                    <path d="M148.075046,159.223138 C148.924001,158.509532 149.696549,157.671819 149.938501,156.655705 C150.180452,155.639591 149.700793,154.41017 148.635356,154.037854 C147.442576,153.622876 146.1649,154.379144 145.197092,155.143169 C144.229285,155.907193 143.117155,156.779811 141.852214,156.616922 C143.170351,155.51462 143.759909,153.861849 143.405799,152.261593 C143.351889,151.937862 143.205472,151.632852 142.981322,151.377341 C142.314894,150.729665 141.113624,151.008903 140.319852,151.51696 C137.77299,153.141967 137.089582,156.275632 137.072602,159.099033 C136.817916,158.082919 137.0344,157.020265 137.02591,155.977003 C137.01742,154.933741 136.707552,153.774129 135.752479,153.215654 C135.152484,152.919376 134.477328,152.773522 133.79564,152.79292 C132.658042,152.754137 131.3931,152.858851 130.620552,153.618997 C129.656989,154.561424 129.907431,156.14377 130.74365,157.183154 C131.57987,158.222537 132.866035,158.870213 134.029102,159.587698 C134.971693,160.099834 135.775549,160.799821 136.380705,161.63544 C136.450405,161.752018 136.508645,161.874016 136.554741,162 L143.67322,162 C145.270273,161.259112 146.750854,160.325098 148.075046,159.223138 L148.075046,159.223138 Z" id="Path" fill="#AE282E" fill-rule="nonzero"></path>
                    <path d="M28.0723135,134.208598 C28.9223368,133.500101 29.6958581,132.65997 29.9381148,131.645619 C30.1803714,130.631268 29.7043583,129.407852 28.6333289,129.032309 C27.4390461,128.618051 26.1597609,129.373007 25.1907342,130.135707 C24.2217076,130.898406 23.108177,131.769509 21.8416422,131.606903 C23.1691919,130.510596 23.7677783,128.860083 23.4184355,127.25913 C23.363496,126.936216 23.2169986,126.631952 22.9934238,126.376412 C22.3261555,125.72986 21.1233724,126.008613 20.3286006,126.51966 C17.7785304,128.137977 17.0942616,131.270077 17.0815113,134.084708 C16.8265043,133.070357 17.0390101,132.009546 17.03476,130.987452 C17.0305099,129.965358 16.7117511,128.7884 15.7597249,128.230894 C15.1589738,127.935129 14.4829673,127.789529 13.8004211,127.808893 C12.6656399,127.774049 11.399105,127.87471 10.6213336,128.633538 C9.65655712,129.574329 9.90731401,131.15393 10.744587,132.19151 C11.5818601,133.229091 12.8696455,133.875643 14.0384276,134.591884 C14.9800417,135.104338 15.7832537,135.802933 16.3887422,136.636072 C16.4585296,136.752448 16.5168432,136.874235 16.562997,137 L23.690443,137 C25.2817939,136.25262 26.7556181,135.313743 28.0723135,134.208598 Z" id="Path" fill="#AE282E" fill-rule="nonzero"></path>
                    <path d="M68.0723135,159.223138 C68.9223368,158.509532 69.6958581,157.671819 69.9381148,156.655705 C70.1803714,155.639591 69.7043583,154.41017 68.6333289,154.037854 C67.4390461,153.622876 66.1597609,154.379144 65.1907342,155.143169 C64.2217076,155.907193 63.108177,156.779811 61.8416422,156.616922 C63.1691919,155.518709 63.7677783,153.865328 63.4184355,152.261593 C63.3644576,151.937862 63.2178556,151.632852 62.9934238,151.377341 C62.3261555,150.729665 61.1233724,151.008903 60.3286006,151.51696 C57.799781,153.141967 57.0942616,156.275632 57.0815113,159.099033 C56.8265043,158.082919 57.0390101,157.020265 57.03476,155.977003 C57.0305099,154.933741 56.7117511,153.774129 55.7597249,153.215654 C55.1589738,152.919376 54.4829673,152.773522 53.8004211,152.79292 C52.6656399,152.754137 51.399105,152.858851 50.6213336,153.618997 C49.6565571,154.561424 49.907314,156.14377 50.744587,157.183154 C51.5818601,158.222537 52.8696455,158.870213 54.0384276,159.587698 C54.9810186,160.099871 55.7844922,160.799908 56.3887422,161.63544 C56.4603667,161.751189 56.5187586,161.873351 56.562997,162 L63.6649423,162 C65.2640075,161.259112 66.7464529,160.325098 68.0723135,159.223138 L68.0723135,159.223138 Z" id="Path" fill="#AE282E" fill-rule="nonzero"></path>
                    <path d="M180.156684,108 C180.156684,108 182.760195,111.207179 178.956337,116.049161 C175.15248,120.891143 172.019161,124.980101 173.285734,128 C173.285734,128 179.022564,119.026141 183.695638,118.881779 C188.368712,118.737417 185.29748,113.407725 180.156684,108 Z" id="Path" fill="#AE282E" fill-rule="nonzero"></path>
                    <path d="M181.090772,108 C181.321604,108.30974 181.503456,108.648821 181.630742,109.006829 C186.23514,114.052683 188.692214,118.762927 184.263621,118.883902 C180.136406,118.993171 175.188772,125.873171 174,127.609756 C174.041858,127.742439 174.087902,127.875122 174.142318,128 C174.142318,128 179.943859,119.02439 184.669645,118.88 C189.395431,118.73561 186.289555,113.40878 181.090772,108 Z" id="Path" fill="#000000" fill-rule="nonzero" opacity="0.1"></path>
                    <path d="M185,111.785469 C185,113.006842 184.77931,114 184.503448,114 C184.227586,114 184,113.006842 184,111.785469 C184,110.564096 184.282759,111.134634 184.558621,111.134634 C184.834483,111.134634 185,110.55987 185,111.785469 Z" id="Path" fill="#FFD037" fill-rule="nonzero"></path>
                    <path d="M187.301753,112.503413 C186.13745,112.857388 185.124415,113.068755 185.009818,112.979625 C184.895221,112.890494 185.798244,112.531425 186.962546,112.179996 C188.126849,111.828567 187.668462,112.083225 187.755556,112.179996 C187.842649,112.276766 188.466055,112.151983 187.301753,112.503413 Z" id="Path" fill="#FFD037" fill-rule="nonzero"></path>
                    <path d="M166.838258,108 C166.838258,108 164.238553,111.207179 168.042899,116.049161 C171.847244,120.891143 174.980965,124.980101 173.71423,128 C173.71423,128 167.972524,119.026141 163.30299,118.881779 C158.633457,118.737417 161.700943,113.407725 166.838258,108 Z" id="Path" fill="#AE282E" fill-rule="nonzero"></path>
                    <path d="M166.906024,108 C166.677582,108.310534 166.49714,108.649462 166.369997,109.006829 C161.763519,114.052683 159.301147,118.762927 163.735929,118.883902 C167.865009,118.993171 172.814879,125.873171 174,127.609756 C173.962004,127.742199 173.915863,127.872496 173.861806,128 C173.861806,128 168.053456,119.02439 163.329722,118.88 C158.605988,118.73561 161.709079,113.40878 166.906024,108 Z" id="Path" fill="#000000" fill-rule="nonzero" opacity="0.1"></path>
                    <path d="M162,111.785469 C162,113.006842 162.22069,114 162.496552,114 C162.772414,114 163,113.006842 163,111.785469 C163,110.564096 162.717241,111.134634 162.441379,111.134634 C162.165517,111.134634 162,110.55987 162,111.785469 Z" id="Path" fill="#FFD037" fill-rule="nonzero"></path>
                    <path d="M160.713702,112.503413 C161.88614,112.857388 162.906254,113.068755 162.993956,112.979625 C163.081658,112.890494 162.204637,112.531425 161.032199,112.179996 C159.859761,111.828567 160.321351,112.083225 160.233649,112.179996 C160.145947,112.276766 159.541264,112.151983 160.713702,112.503413 Z" id="Path" fill="#FFD037" fill-rule="nonzero"></path>
                    <path d="M163,128.004639 C163,128.004639 169.987123,127.777047 172.08962,126.183904 C174.192116,124.590761 182.820697,122.698377 183.361225,125.248249 C183.901753,127.79812 193.861782,137.930173 185.972454,137.997608 C178.083125,138.065043 167.646159,136.695277 165.543663,135.33394 C163.441166,133.972604 163,128.004639 163,128.004639 Z" id="Path" fill="#A8A8A8" fill-rule="nonzero"></path>
                    <path d="M186.116213,136.208501 C178.229271,136.26922 167.786229,135.035858 165.683309,133.81388 C164.0932,132.884115 163.445231,129.540754 163.234541,128 L163,128 C163,128 163.441255,133.37746 165.544175,134.599437 C167.647094,135.821414 178.086161,137.058572 185.977078,136.997852 C188.25491,136.997852 189.042014,136.204706 188.998286,135.058627 C188.688214,135.76449 187.821605,136.197116 186.116213,136.208501 Z" id="Path" fill="#000000" fill-rule="nonzero" opacity="0.2"></path>
                </g>
                <g id="Group" transform="translate(445.000000, 57.000000)" fill-rule="nonzero">
                    <g id="undraw_voting_nvu7">
                        <ellipse id="Oval" fill="#AE282E" opacity="0.4" cx="129.366525" cy="49.7313084" rx="4.54449153" ry="4.52102804"></ellipse>
                        <ellipse id="Oval" fill="#AE282E" opacity="0.4" cx="30.2966102" cy="22.3037383" rx="6.66525424" ry="6.63084112"></ellipse>
                        <ellipse id="Oval" fill="#AE282E" opacity="0.4" cx="17.875" cy="25.0163551" rx="4.54449153" ry="4.52102804"></ellipse>
                        <path d="M133.484276,101.704109 C129.803157,105.69914 129.669492,111.518692 129.669492,111.518692 C129.669492,111.518692 135.504099,110.861016 139.185216,106.865985 C142.866333,102.870954 143,97.0514019 143,97.0514019 C143,97.0514019 137.165393,97.7090757 133.484276,101.704109 Z" id="Path" fill="#3F3D56"></path>
                        <path d="M135.4786,103.262017 C134.391521,108.588727 129.821931,112.121495 129.821931,112.121495 C129.821931,112.121495 127.014833,107.017962 128.101908,101.691254 C129.188984,96.3645464 133.758577,92.8317757 133.758577,92.8317757 C133.758577,92.8317757 136.565675,97.9353091 135.4786,103.262017 Z" id="Path" fill="#AE282E"></path>
                        <polygon id="Path" fill="#004A7F" points="130.881356 47.6214953 130.881356 111.429522 109.48129 129 0 129 0 62.1093844 31.9449044 47.6214953"></polygon>
                        <polygon id="Path" fill="#3B566A" points="130.881356 47.6214953 130.881356 47.8768255 123.198984 52.9804516 109.48129 62.088785 0 62.088785 31.9449044 47.6214953"></polygon>
                        <polygon id="Path" fill="#233847" points="130.275424 47.6214953 130.275424 111.429522 109.067797 129 109.221489 61.9552443 122.662135 52.9880819 130.152512 47.6214953"></polygon>
                        <polygon id="Path" fill="#2F2E41" points="101.455237 56.6635514 35.1440678 56.6635514 40.0788862 53.6495327 103.614407 53.6495327"></polygon>
                        <path d="M82.4067797,17.3519695 C82.4067797,17.3519695 80.8043852,12.6845607 79.6471064,14.1488459 C78.4898276,15.6131311 81.4275451,18.0841121 81.4275451,18.0841121 L82.4067797,17.3519695 Z" id="Path" fill="#FFB9B9"></path>
                        <path d="M87.4121616,46.4262108 C87.4121616,46.4262108 87.5078,47.4768416 87.699079,47.5723527 C87.890358,47.6678638 89.3249451,50.0556714 87.699079,50.5332164 C86.0732129,51.0107614 85.1168201,50.8197518 84.7342684,51.0107762 C84.3517168,51.2018005 77.6569649,51.5838471 77.5613328,50.5332164 C77.4657007,49.4825856 80.8130672,49.291557 80.8130672,49.291557 C80.8130672,49.291557 83.8735225,47.2858067 84.3517189,46.2351759 C84.8299154,45.1845452 87.4121616,46.4262108 87.4121616,46.4262108 Z" id="Path" fill="#2F2E41"></path>
                        <polygon id="Path" fill="#FFFFFF" points="99.9788136 55.4579439 73.2206022 0 28.4788136 21.3543255 44.9337419 55.4579439"></polygon>
                        <polygon id="Rectangle" fill="#F06321" transform="translate(52.895274, 28.181676) rotate(-25.635400) translate(-52.895274, -28.181676) " points="39.7454851 27.336427 66.0410392 27.4012393 66.0450621 29.0269253 39.7495079 28.962113"></polygon>
                        <polygon id="Rectangle" fill="#F06321" transform="translate(59.179433, 41.194307) rotate(-25.635400) translate(-59.179433, -41.194307) " points="46.0296447 40.3490579 72.3251989 40.4138702 72.3292217 42.0395562 46.0336676 41.9747439"></polygon>
                        <polygon id="Rectangle" fill="#F06321" transform="translate(73.477774, 18.466949) rotate(-25.635400) translate(-73.477774, -18.466949) " points="70.2054526 15.2075324 76.7340047 15.2236238 76.750096 21.7263657 70.221544 21.7102744"></polygon>
                        <polygon id="Rectangle" fill="#F06321" transform="translate(79.761936, 31.479582) rotate(-25.635400) translate(-79.761936, -31.479582) " points="76.4896144 28.2201654 83.0181665 28.2362568 83.0342578 34.7389987 76.5057057 34.7229074"></polygon>
                        <polygon id="Path" fill="#38364D" points="75.0993994 10.2476636 72.7210875 17.0041723 69.5149991 15.8789944 69.0762712 17.1253549 73.5264352 18.6869159 76.3474576 10.6857211"></polygon>
                        <polygon id="Path" fill="#38364D" points="81.764444 22.9065421 79.3861322 29.6630508 76.1802533 28.5380822 75.7415254 29.7842334 80.1914798 31.3457944 83.0127119 23.3445996"></polygon>
                    </g>
                </g>
                <g id="Group-8" transform="translate(164.000000, 42.000000)" fill-rule="nonzero">
                    <ellipse id="Oval" fill="#AE282E" opacity="0.1" cx="43.5" cy="194" rx="18.5" ry="6"></ellipse>
                    <ellipse id="Oval" fill="#AE282E" opacity="0.1" cx="273.5" cy="194" rx="18.5" ry="6"></ellipse>
                    <ellipse id="Oval" fill="#AE282E" opacity="0.1" cx="23.5" cy="226" rx="18.5" ry="6"></ellipse>
                    <ellipse id="Oval" fill="#AE282E" opacity="0.1" cx="293.5" cy="226" rx="18.5" ry="6"></ellipse>
                    <polygon id="Path" fill="#B77B7F" points="287 220.517868 292 229 292 166 287 166"></polygon>
                    <polygon id="Path" fill="#B77B7F" points="29 220.517868 24 229 24 166 29 166"></polygon>
                    <polygon id="Path" fill="#000000" opacity="0.1" points="287 220.517868 292 229 292 166 287 166"></polygon>
                    <polygon id="Path" fill="#000000" opacity="0.1" points="29 220.517868 24 229 24 166 29 166"></polygon>
                    <rect id="Rectangle" fill="#B77B7F" x="44" y="49" width="11" height="78"></rect>
                    <rect id="Rectangle" fill="#B77B7F" x="269" y="49" width="11" height="78"></rect>
                    <rect id="Rectangle" fill="#000000" opacity="0.1" x="44" y="49" width="11" height="9"></rect>
                    <rect id="Rectangle" fill="#000000" opacity="0.1" x="269" y="49" width="11" height="9"></rect>
                    <rect id="Rectangle" fill="#DDA2A6" x="28" y="45" width="267" height="12"></rect>
                    <rect id="Rectangle" fill="#000000" opacity="0.1" x="44" y="62" width="11" height="12"></rect>
                    <rect id="Rectangle" fill="#000000" opacity="0.1" x="269" y="62" width="11" height="12"></rect>
                    <rect id="Rectangle" fill="#DDA2A6" x="28" y="62" width="267" height="12"></rect>
                    <rect id="Rectangle" fill="#000000" opacity="0.1" x="44" y="77" width="11" height="12"></rect>
                    <rect id="Rectangle" fill="#000000" opacity="0.1" x="269" y="77" width="11" height="12"></rect>
                    <rect id="Rectangle" fill="#DDA2A6" x="28" y="77" width="267" height="12"></rect>
                    <rect id="Rectangle" fill="#000000" opacity="0.1" x="44" y="94" width="11" height="12"></rect>
                    <rect id="Rectangle" fill="#000000" opacity="0.1" x="269" y="94" width="11" height="12"></rect>
                    <rect id="Rectangle" fill="#DDA2A6" x="28" y="92" width="267" height="12"></rect>
                    <rect id="Rectangle" fill="#000000" opacity="0.1" x="44" y="109" width="11" height="12"></rect>
                    <rect id="Rectangle" fill="#000000" opacity="0.1" x="269" y="109" width="11" height="12"></rect>
                    <rect id="Rectangle" fill="#DDA2A6" x="28" y="109" width="267" height="12"></rect>
                    <g id="Group" opacity="0.1" transform="translate(49.000000, 51.000000)" fill="#000000">
                        <ellipse id="Oval" cx="1.90174334" cy="1.6442623" rx="1.61043584" ry="1.63311475"></ellipse>
                        <ellipse id="Oval" cx="1.90174334" cy="17.7022951" rx="1.61043584" ry="1.63311475"></ellipse>
                        <ellipse id="Oval" cx="1.90174334" cy="33.7603279" rx="1.61043584" ry="1.63311475"></ellipse>
                        <ellipse id="Oval" cx="1.90174334" cy="49.8183607" rx="1.61043584" ry="1.63311475"></ellipse>
                        <ellipse id="Oval" cx="1.90174334" cy="65.8763934" rx="1.61043584" ry="1.63311475"></ellipse>
                        <ellipse id="Oval" cx="225.263148" cy="1.6442623" rx="1.61043584" ry="1.63311475"></ellipse>
                        <ellipse id="Oval" cx="225.263148" cy="17.7022951" rx="1.61043584" ry="1.63311475"></ellipse>
                        <ellipse id="Oval" cx="225.263148" cy="33.7603279" rx="1.61043584" ry="1.63311475"></ellipse>
                        <ellipse id="Oval" cx="225.263148" cy="49.8183607" rx="1.61043584" ry="1.63311475"></ellipse>
                        <ellipse id="Oval" cx="225.263148" cy="65.8763934" rx="1.61043584" ry="1.63311475"></ellipse>
                    </g>
                    <circle id="Oval" fill="#918C9E" cx="50.5" cy="50.5" r="1.5"></circle>
                    <circle id="Oval" fill="#918C9E" cx="50.5" cy="67.5" r="1.5"></circle>
                    <circle id="Oval" fill="#918C9E" cx="50.5" cy="82.5" r="1.5"></circle>
                    <circle id="Oval" fill="#918C9E" cx="50.5" cy="98.5" r="1.5"></circle>
                    <circle id="Oval" fill="#918C9E" cx="50.5" cy="115.5" r="1.5"></circle>
                    <circle id="Oval" fill="#918C9E" cx="273.5" cy="50.5" r="1.5"></circle>
                    <circle id="Oval" fill="#918C9E" cx="273.5" cy="67.5" r="1.5"></circle>
                    <circle id="Oval" fill="#918C9E" cx="273.5" cy="82.5" r="1.5"></circle>
                    <circle id="Oval" fill="#918C9E" cx="273.5" cy="98.5" r="1.5"></circle>
                    <circle id="Oval" fill="#918C9E" cx="273.5" cy="115.5" r="1.5"></circle>
                    <polygon id="Path" fill="#DDA2A6" points="301 132 21 132 27.3717579 124 294.809664 124"></polygon>
                    <polygon id="Path" fill="#000000" opacity="0.1" points="301 132 21 132 27.3717579 124 294.809664 124"></polygon>
                    <polygon id="Path" fill="#DDA2A6" points="301 131 21 131 27.3717579 123 294.809664 123"></polygon>
                    <polygon id="Path" fill="#DDA2A6" points="310 143 11 142.303931 21.1508968 132 301.304704 132"></polygon>
                    <polygon id="Path" fill="#000000" opacity="0.1" points="310 143 11 142.303931 21.1508968 132 301.304704 132"></polygon>
                    <polygon id="Path" fill="#DDA2A6" points="310 143 11 142.303931 21.1508968 132 301.304704 132"></polygon>
                    <polygon id="Path" fill="#DDA2A6" points="321 155 0 155 9.84753755 144 312.253361 144.359406"></polygon>
                    <polygon id="Path" fill="#B77B7F" points="49 166 49 189.248607 44.6191446 197 43.1710794 169.32123 43 166"></polygon>
                    <polygon id="Path" fill="#B77B7F" points="273 166 272.822991 169.32123 271.382503 197 267 189.248607 267 166"></polygon>
                    <polygon id="Path" fill="#000000" opacity="0.1" points="49 166 49 189.248607 44.6191446 197 43.1710794 169.32123 43 166"></polygon>
                    <polygon id="Path" fill="#000000" opacity="0.1" points="273 166 272.822991 169.32123 271.382503 197 267 189.248607 267 166"></polygon>
                    <rect id="Rectangle" fill="#B77B7F" x="35" y="165" width="11" height="32"></rect>
                    <rect id="Rectangle" fill="#B77B7F" x="272" y="165" width="11" height="32"></rect>
                    <polygon id="Path" fill="#000000" opacity="0.1" points="45.0972006 165.785329 49 165.785329 49 169 35 169 35 164 45.0972006 164"></polygon>
                    <polygon id="Path" fill="#000000" opacity="0.1" points="283 164 283 169 269 169 269 165.785329 272.908243 165.785329 272.908243 164"></polygon>
                    <rect id="Rectangle" fill="#B77B7F" x="22" y="160" width="273" height="8"></rect>
                    <rect id="Rectangle" fill="#B77B7F" x="12" y="158" width="12" height="71"></rect>
                    <rect id="Rectangle" fill="#B77B7F" transform="translate(298.000000, 193.500000) rotate(-180.000000) translate(-298.000000, -193.500000) " x="292" y="158" width="12" height="71"></rect>
                    <rect id="Rectangle" fill="#000000" opacity="0.1" x="22" y="159" width="273" height="1"></rect>
                    <rect id="Rectangle" fill="#DDA2A6" x="0" y="155" width="321" height="5"></rect>
                    <rect id="Rectangle" fill="#FFFFFF" opacity="0.1" x="0" y="155" width="321" height="5"></rect>
                    <circle id="Oval" fill="#000000" opacity="0.1" cx="18.5" cy="164.5" r="1.5"></circle>
                    <circle id="Oval" fill="#918C9E" cx="18.5" cy="164.5" r="1.5"></circle>
                    <circle id="Oval" fill="#000000" opacity="0.1" cx="297.5" cy="164.5" r="1.5"></circle>
                    <circle id="Oval" fill="#918C9E" cx="297.5" cy="162.5" r="1.5"></circle>
                    <g id="Group" opacity="0.1" transform="translate(147.000000, 0.000000)" fill="#000000">
                        <path d="M1.62,0.874 C1.62,0.749142857 1.62,0.624285714 1.65272727,0.499428571 C1.54362798,0.598628074 1.44824877,0.711807907 1.36909091,0.836 C1.10683294,1.41767446 0.976474425,2.0496827 0.987272727,2.68714286 C0.987272727,2.76314286 0.987272727,2.83914286 0.954545455,2.92057143 C1.30293086,2.28576708 1.52864782,1.59158612 1.62,0.874 L1.62,0.874 Z" id="Path"></path>
                    </g>
                    <g id="Group" opacity="0.1" transform="translate(192.000000, 24.000000)" fill="#000000">
                        <path d="M3.47482759,1.36904762 C2.3683867,1.94584919 1.32023727,2.65221166 0.348103448,3.47619048 C0.78637931,3.20238095 1.23,2.94642857 1.67896552,2.70833333 C2.80981316,2.19066829 3.86816888,1.49509832 4.82172414,0.642857143 C4.37275862,0.922619048 3.91844828,1.13690476 3.47482759,1.36904762 Z" id="Path"></path>
                    </g>
                </g>
                <ellipse id="Oval" fill="#A77579" cx="320.799539" cy="175.753355" rx="139" ry="6"></ellipse>
                <path d="M336.581788,8.32828512 C357.679279,8.32828512 374.639753,13.9096247 387.463718,25.0724712 C400.287684,36.2353177 406.69957,52.049113 406.69957,72.5143316 C406.69957,93.1862696 400.132557,109.000065 386.998335,119.956192 C373.864112,130.912319 356.231425,136.597017 334.099743,137.010456 L334.099743,168.328285 L292.835738,168.328285 L292.835738,108.483324 L310.520312,108.483324 C327.274202,108.483324 340.30481,105.951049 349.612526,100.886425 C358.920243,95.8217998 363.574032,86.4678882 363.574032,72.8244091 C363.574032,63.7287564 360.988594,56.6487239 355.81764,51.5840991 C350.646686,46.5194743 343.717712,43.9871998 335.03051,43.9871998 C325.515955,43.9871998 317.966476,46.7261905 312.381846,52.2042541 C306.797216,57.6823177 304.004943,64.7623502 304.004943,73.4445642 L262.740938,73.4445642 C262.327262,61.0414014 265.016117,49.9304014 270.807586,40.1112309 C276.599054,30.2920603 285.130999,22.5401998 296.403679,16.8554169 C307.676358,11.170634 321.068927,8.32828512 336.581788,8.32828512 Z M338.054526,194.56069 L338.054526,239.56069 L290.054526,239.56069 L290.054526,194.56069 L338.054526,194.56069 Z" id="?" stroke="#FFFFFF" fill="#AE282E" fill-rule="nonzero" transform="translate(334.799539, 123.753355) rotate(66.000000) translate(-334.799539, -123.753355) "></path>
            </g>
        </g>
    </g>
</svg>