<svg xmlns="http://www.w3.org/2000/svg" width="223" height="223" viewBox="0 0 223 223">
    <g fill="#004A7F" fill-rule="evenodd">
        <rect width="223" height="223" opacity=".05" rx="111.5"/>
        <path fill-rule="nonzero" d="M164.708 112a2.292 2.292 0 0 1-2.291-2.292v-41.25a6.875 6.875 0 0 0-6.875-6.875H68.458a6.875 6.875 0 0 0-6.875 6.875v64.167a6.875 6.875 0 0 0 6.875 6.875h87.084a6.875 6.875 0 0 0 6.875-6.875v-9.167H77.625a8.91 8.91 0 0 1-9.167-9.166V75.333a6.875 6.875 0 0 1 6.875-6.875h59.584c.606 0 1.188.241 1.618.67l18.333 18.333c.213.21.381.463.495.74.118.28.179.58.179.882V112a2.292 2.292 0 1 1-4.584 0V91.375H139.5a6.875 6.875 0 0 1-6.875-6.875v-2.292a2.292 2.292 0 0 1 4.583 0V84.5a2.292 2.292 0 0 0 2.292 2.292h8.218l-13.75-13.75H75.333a2.292 2.292 0 0 0-2.291 2.291v38.959a4.315 4.315 0 0 0 4.583 4.583h87.083a2.292 2.292 0 0 1 2.292 2.292v11.458c-.008 6.325-5.133 11.45-11.458 11.458H98.25v11.459a2.292 2.292 0 0 1-1.02 1.913l-5.855 3.896v1.066h41.25v-1.066l-5.855-3.903a2.292 2.292 0 0 1-1.02-1.906v-4.584a2.292 2.292 0 0 1 4.583 0v3.358l5.856 3.902a2.292 2.292 0 0 1 1.02 1.907v2.292a4.583 4.583 0 0 1-4.584 4.583h-41.25a4.583 4.583 0 0 1-4.583-4.583v-2.292a2.292 2.292 0 0 1 1.02-1.914l5.855-3.895v-10.233H68.458c-6.325-.007-11.45-5.133-11.458-11.458V68.458c.008-6.325 5.133-11.45 11.458-11.458h87.084c6.325.008 11.45 5.133 11.458 11.458v41.25a2.292 2.292 0 0 1-2.292 2.292zm-82.5-4.583a2.292 2.292 0 0 1 0-4.584h7.297a6.875 6.875 0 1 1 0 4.584h-7.297zm13.75-4.584a2.292 2.292 0 1 0 0 4.584 2.292 2.292 0 0 0 0-4.584zm27.5 0a2.292 2.292 0 1 1 0 4.584h-13.75a2.292 2.292 0 0 1 0-4.584h13.75zm0-18.333a2.292 2.292 0 1 1 0 4.583h-7.296a6.875 6.875 0 1 1 0-4.583h7.296zm-13.75 4.583a2.292 2.292 0 1 0 0-4.583 2.292 2.292 0 0 0 0 4.583zm-27.5 0a2.292 2.292 0 0 1 0-4.583h13.75a2.292 2.292 0 1 1 0 4.583h-13.75z"/>
    </g>
</svg>
