<svg xmlns="http://www.w3.org/2000/svg" width="223" height="223" viewBox="0 0 223 223">
    <g fill="#F06321" fill-rule="evenodd">
        <rect width="223" height="223" opacity=".05" rx="111.5"/>
        <path fill-rule="nonzero" d="M164.753 149.73c-9.602-9.602-27.15-27.148-41.693-41.7l28.496-28.494 6.106.427.133.003c.689 0 1.33-.373 1.668-.982l9.297-16.756a1.903 1.903 0 0 0-.32-2.273l-5.385-5.385a1.907 1.907 0 0 0-2.273-.319l-16.758 9.297a1.908 1.908 0 0 0-.977 1.8l.427 6.103-28.496 28.497-15.061-15.06a23.248 23.248 0 0 0-5.55-24.047c-6.247-6.246-15.334-8.418-23.72-5.671-.029.01-.053.025-.083.037-.03.011-.057.025-.087.038-.21.092-.397.216-.555.37-.01.008-.02.01-.03.019-.011.011-.015.026-.025.038a1.901 1.901 0 0 0-.526 1.27c0 .03 0 .056.002.086.004.182.025.365.085.548.01.03.027.056.039.084.011.028.024.055.037.083.092.211.216.398.369.556.009.009.012.022.02.03l9.06 9.059a4.543 4.543 0 0 1 1.34 3.229 4.52 4.52 0 0 1-1.334 3.222l-4.543 4.543a4.57 4.57 0 0 1-6.452-.006l-9.06-9.059c-.008-.009-.02-.01-.027-.019a1.903 1.903 0 0 0-.558-.37c-.029-.013-.056-.027-.085-.039-.03-.011-.055-.028-.085-.037a1.865 1.865 0 0 0-.543-.084c-.03-.001-.06-.003-.09-.001a1.882 1.882 0 0 0-.627.122c-.029.012-.056.02-.084.034-.206.089-.394.213-.557.37-.012.012-.027.014-.038.026-.01.009-.012.02-.02.03a1.893 1.893 0 0 0-.369.555c-.013.03-.027.057-.038.088-.012.03-.027.055-.037.084-2.739 8.39-.566 17.477 5.671 23.715a23.277 23.277 0 0 0 16.474 6.835c2.538 0 5.09-.442 7.569-1.293l9.607 9.607c-.167-.013-.328-.048-.497-.048-1.81 0-3.514.705-4.793 1.985l-33.79 33.78A6.732 6.732 0 0 0 54 149.45c0 1.81.705 3.514 1.987 4.794l2.933 2.934.001.003a.004.004 0 0 0 .003.001l9.83 9.831A6.744 6.744 0 0 0 73.553 169a6.734 6.734 0 0 0 4.795-1.986l33.786-33.783a6.732 6.732 0 0 0 1.987-4.794c0-.168-.036-.329-.049-.495l37.47 37.49a10.18 10.18 0 0 0 7.223 2.984c2.617 0 5.237-.994 7.235-2.984a10.139 10.139 0 0 0 2.988-7.222c0-2.74-1.062-5.309-2.988-7.234l-1.246-1.246zm-17.967-76.193c.009-.01.011-.022.02-.031.156-.162.28-.35.37-.558.012-.026.025-.049.035-.075.077-.196.117-.408.123-.628.001-.032.004-.063.003-.096 0-.032.005-.061.002-.093l-.402-5.76 14.438-8.01 3.35 3.352-8.01 14.436-5.76-.403c-.032-.003-.064.003-.096.002-.03 0-.058.001-.087.003-.22.005-.433.046-.632.122-.028.01-.053.025-.081.037a1.9 1.9 0 0 0-.549.365c-.011.011-.026.014-.038.025l-35.769 35.768-2.689-2.689 35.772-35.767zm-59.448 22.28a1.902 1.902 0 0 0-2.092-.45 19.48 19.48 0 0 1-21.135-4.276 19.382 19.382 0 0 1-5.486-16.66l6.64 6.64a8.364 8.364 0 0 0 5.93 2.453 8.342 8.342 0 0 0 5.916-2.446l4.543-4.542a8.31 8.31 0 0 0 2.451-5.922 8.327 8.327 0 0 0-2.458-5.923l-6.644-6.644c6.058-.922 12.22 1.046 16.665 5.488a19.447 19.447 0 0 1 4.392 20.799l-1.996 2.009a1.907 1.907 0 1 0 2.707 2.687l.944-.95 14.565 14.563-3.972 3.972a5.466 5.466 0 0 0-3.8-1.536 5.475 5.475 0 0 0-3.896 1.614l-1.199 1.198-12.075-12.074zM67.17 160.034l-4.2-4.202 29.16-29.157c1.122-1.122 3.08-1.122 4.202 0a2.971 2.971 0 0 1 0 4.2L67.17 160.034zm42.267-29.5l-33.785 33.784c-1.12 1.12-3.078 1.12-4.197 0l-1.587-1.587 29.162-29.159a6.788 6.788 0 0 0 0-9.594 6.741 6.741 0 0 0-4.798-1.988 6.731 6.731 0 0 0-4.797 1.988l-29.162 29.158-1.587-1.587a2.952 2.952 0 0 1-.87-2.098c0-.792.31-1.537.87-2.098L92.47 113.57a2.948 2.948 0 0 1 2.098-.87c.793 0 1.538.309 2.098.87l12.77 12.769c.56.56.87 1.304.87 2.096 0 .794-.31 1.539-.87 2.1zm4.18-10.839l-2.714 2.714-10.306-10.304 2.715-2.714c.64-.639 1.756-.64 2.397 0l1.25 1.25c.004.004.005.01.01.015l5.386 5.385c.003.004.01.005.015.01l1.249 1.25c.658.66.658 1.734-.002 2.394zm49.688 43.037c-2.506 2.495-6.573 2.496-9.067.003l-39.123-39.144 1.199-1.198c2.118-2.119 2.138-5.54.078-7.695l3.971-3.971c14.544 14.554 32.093 32.099 41.694 41.7l1.246 1.247a6.36 6.36 0 0 1 1.87 4.536 6.352 6.352 0 0 1-1.868 4.522z"/>
    </g>
</svg>
