<?xml version="1.0" encoding="UTF-8"?>
<svg width="63px" height="20px" viewBox="0 0 63 20" version="1.1" xmlns="http://www.w3.org/2000/svg" xmlns:xlink="http://www.w3.org/1999/xlink">
    <!-- Generator: Sketch 55.2 (78181) - https://sketchapp.com -->
    <title>label 2 copym</title>
    <desc>Created with Sketch.</desc>
    <g id="label-2-copy" stroke="none" stroke-width="1" fill="none" fill-rule="evenodd">
        <rect id="Rectangle" fill="#F06321" x="0" y="0" width="63" height="20" rx="2"></rect>
        <path d="M10.71,11.7 L10.71,14.18 L9,14.18 L9,7.11 L11.77,7.11 C12.6100042,7.11 13.2499978,7.31833125 13.69,7.735 C14.1300022,8.15166875 14.35,8.7133298 14.35,9.42 C14.35,9.8600022 14.2516676,10.251665 14.055,10.595 C13.8583324,10.938335 13.5666686,11.2083323 13.18,11.405 C12.7933314,11.6016676 12.3233361,11.7 11.77,11.7 L10.71,11.7 Z M11.58,10.33 C12.2666701,10.33 12.61,10.0266697 12.61,9.42 C12.61,8.7999969 12.2666701,8.49 11.58,8.49 L10.71,8.49 L10.71,10.33 L11.58,10.33 Z M18.55,7 C19.21667,7 19.821664,7.15499845 20.365,7.465 C20.908336,7.77500155 21.3366651,8.20499725 21.65,8.755 C21.9633349,9.30500275 22.12,9.9266632 22.12,10.62 C22.12,11.3133368 21.9616682,11.9366639 21.645,12.49 C21.3283318,13.0433361 20.8983361,13.4749984 20.355,13.785 C19.8116639,14.0950015 19.2100033,14.25 18.55,14.25 C17.8899967,14.25 17.2883361,14.0950015 16.745,13.785 C16.201664,13.4749984 15.7716683,13.0433361 15.455,12.49 C15.1383318,11.9366639 14.98,11.3133368 14.98,10.62 C14.98,9.9266632 15.1383318,9.30500275 15.455,8.755 C15.7716683,8.20499725 16.201664,7.77500155 16.745,7.465 C17.2883361,7.15499845 17.8899967,7 18.55,7 Z M18.55,8.59 C17.9899972,8.59 17.5450016,8.77166485 17.215,9.135 C16.8849984,9.49833515 16.72,9.9933302 16.72,10.62 C16.72,11.2400031 16.8849984,11.7333315 17.215,12.1 C17.5450016,12.4666685 17.9899972,12.65 18.55,12.65 C19.1033361,12.65 19.546665,12.4666685 19.88,12.1 C20.213335,11.7333315 20.38,11.2400031 20.38,10.62 C20.38,9.9999969 20.2150017,9.5066685 19.885,9.14 C19.5549984,8.7733315 19.1100028,8.59 18.55,8.59 Z M24.79,11.7 L24.79,14.18 L23.08,14.18 L23.08,7.11 L25.85,7.11 C26.6900042,7.11 27.3299978,7.31833125 27.77,7.735 C28.2100022,8.15166875 28.43,8.7133298 28.43,9.42 C28.43,9.8600022 28.3316677,10.251665 28.135,10.595 C27.9383324,10.938335 27.6466686,11.2083323 27.26,11.405 C26.8733314,11.6016676 26.4033361,11.7 25.85,11.7 L24.79,11.7 Z M25.66,10.33 C26.3466701,10.33 26.69,10.0266697 26.69,9.42 C26.69,8.7999969 26.3466701,8.49 25.66,8.49 L24.79,8.49 L24.79,10.33 L25.66,10.33 Z M30.93,7.11 L30.93,11.19 C30.93,11.656669 31.034999,12.0133321 31.245,12.26 C31.4550011,12.5066679 31.759998,12.63 32.16,12.63 C32.560002,12.63 32.864999,12.5066679 33.075,12.26 C33.2850011,12.0133321 33.39,11.656669 33.39,11.19 L33.39,7.11 L35.1,7.11 L35.1,11.19 C35.1,11.85667 34.9700013,12.418331 34.71,12.875 C34.4499987,13.3316689 34.0950023,13.6749988 33.645,13.905 C33.1949977,14.1350011 32.6866695,14.25 32.12,14.25 C31.5533305,14.25 31.0533355,14.1366678 30.62,13.91 C30.1866645,13.6833322 29.8466679,13.3400023 29.6,12.88 C29.3533321,12.4199977 29.23,11.85667 29.23,11.19 L29.23,7.11 L30.93,7.11 Z M37.95,12.87 L40.23,12.87 L40.23,14.18 L36.24,14.18 L36.24,7.11 L37.95,7.11 L37.95,12.87 Z M45.4,12.89 L42.75,12.89 L42.31,14.18 L40.51,14.18 L43.1,7.16 L45.07,7.16 L47.66,14.18 L45.84,14.18 L45.4,12.89 Z M44.96,11.59 L44.08,8.99 L43.19,11.59 L44.96,11.59 Z M51.95,14.18 L50.42,11.51 L50.03,11.51 L50.03,14.18 L48.32,14.18 L48.32,7.11 L51.24,7.11 C51.8000028,7.11 52.2733314,7.2066657 52.66,7.4 C53.0466686,7.5933343 53.3366657,7.85833165 53.53,8.195 C53.7233343,8.53166835 53.82,8.9166645 53.82,9.35 C53.82,9.8633359 53.6783347,10.2999982 53.395,10.66 C53.1116653,11.0200018 52.7000027,11.266666 52.16,11.4 L53.84,14.18 L51.95,14.18 Z M50.03,10.34 L51.09,10.34 C51.4300017,10.34 51.6799992,10.2650007 51.84,10.115 C52.0000008,9.96499925 52.08,9.7433348 52.08,9.45 C52.08,9.1699986 51.9983342,8.9500008 51.835,8.79 C51.6716658,8.6299992 51.423335,8.55 51.09,8.55 L50.03,8.55 L50.03,10.34 Z" id="POPULAR" fill="#FFFFFF" fill-rule="nonzero"></path>
    </g>
</svg>