<svg xmlns="http://www.w3.org/2000/svg" width="46" height="46" viewBox="0 0 46 46">
    <path fill="#F06321" fill-rule="nonzero" d="M26.532.004a1.057 1.057 0 0 0-.718.392l-5.744 7.32a1.071 1.071 0 0 0-.126 1.107c.17.353.551.593.942.593h2.611v9.934c0 .553.509 1.054 1.06 1.046 1.378-.014 2.767-.003 4.162 0 .547 0 1.044-.498 1.045-1.046V9.416h2.61c.392 0 .773-.24.942-.593.17-.353.119-.801-.125-1.107L27.446.396a1.063 1.063 0 0 0-.914-.392zM11.911 2.096c-.514.048-.95.529-.947 1.045v9.935H8.353a1.068 1.068 0 0 0-.927.589 1.07 1.07 0 0 0 .111 1.094l5.744 7.32c.39.488 1.242.488 1.632 0l5.745-7.32a1.07 1.07 0 0 0 .11-1.094 1.068 1.068 0 0 0-.926-.59H17.23V3.142c0-.547-.498-1.045-1.045-1.045-1.498-.001-2.982.01-4.275 0zm14.72.637l3.606 4.591h-1.518c-.547 0-1.044.498-1.044 1.046v9.934c-.694-.002-1.391-.001-2.09 0V8.37c0-.548-.497-1.046-1.044-1.046h-1.517l3.606-4.591zM13.052 4.187c.698.002 1.395.003 2.089 0v9.934c0 .548.497 1.046 1.044 1.046h1.501l-3.59 4.575-3.59-4.575h1.501c.547 0 1.045-.498 1.045-1.046V4.187zm-9.922 18.3c-.972 0-1.853.434-2.366 1.095-.513.66-.702 1.46-.751 2.238-.096 1.528.301 3.088 1.29 4.134.098.133.22.264.315.374 2.16 2.48 4.906 5.34 7.55 7.649 1.387 1.211 2.745 2.26 3.998 3.04 1.253.779 2.371 1.34 3.541 1.34h.523c.551.007 1.059-.494 1.059-1.047 0-.552-.508-1.053-1.06-1.045h-.522c-.396 0-1.345-.327-2.448-1.014-1.102-.686-2.388-1.695-3.72-2.859-2.665-2.327-5.51-5.302-7.654-7.794a3.87 3.87 0 0 1-.278-.39c-.283-.539-.57-1.495-.521-2.257.03-.487.169-.876.326-1.078.104-.134.3-.152.473-.196 3.162 2.824 6.516 5.458 9.718 8.218a4.49 4.49 0 0 0 .58 1.585c.733 1.214 2 2.18 3.524 2.092v.032h8.356c.551.008 1.059-.493 1.059-1.045 0-.553-.508-1.054-1.06-1.046H16.61c-.457.04-1.219-.401-1.648-1.111-.333-.552-.358-1.067-.196-1.503H33.42c2.202 0 3.906 1.084 5.614 2.63 1.707 1.547 3.311 3.512 5.238 4.984.426.386 1.177.32 1.529-.136.35-.455.225-1.2-.256-1.515-1.636-1.25-3.237-3.19-5.108-4.885-1.87-1.694-4.117-3.17-7.017-3.17h-19.42a1.056 1.056 0 0 0-.701.36c-.091.106-.172.23-.245.343-2.606-2.206-7.84-6.457-9.204-7.745a1.055 1.055 0 0 0-.718-.278zm18.18 17.778c-.548.025-1.022.547-.996 1.094.025.548.546 1.023 1.093.997h8.274c1.689.253 2.604.737 3.443 1.356.853.63 1.654 1.476 2.938 2.173.482.261 1.159.059 1.42-.424.26-.484.058-1.161-.425-1.422-.97-.527-1.664-1.25-2.693-2.01-1.028-.759-2.395-1.47-4.455-1.764h-8.6z"/>
</svg>
