<svg xmlns="http://www.w3.org/2000/svg" xmlns:xlink="http://www.w3.org/1999/xlink" width="40" height="40" viewBox="0 0 40 40">
    <defs>
        <path id="a" d="M25.627 22.388c1.552.66 3.898 1.657 3.898 3.9v6.75a.562.562 0 0 1-.563.562h-18a.562.562 0 0 1-.562-.563v-6.75c0-2.242 2.346-3.239 3.898-3.899l2.632-1.118a.561.561 0 1 1 .44 1.035l-2.632 1.118c-1.758.748-3.213 1.48-3.213 2.865v6.187H28.4v-6.188c0-1.385-1.455-2.116-3.214-2.864l-2.631-1.118a.562.562 0 1 1 .44-1.035l2.632 1.118zm-5.665 8.4a.562.562 0 0 1-.562-.563v-6.188h-.563a.562.562 0 1 1 0-1.124h2.25a.562.562 0 1 1 0 1.125h-.562v6.187a.562.562 0 0 1-.563.563zm5.063-15.75a5.068 5.068 0 0 1-5.063 5.062 5.068 5.068 0 0 1-5.062-5.063V13.35a.562.562 0 1 1 1.125 0v1.688a3.942 3.942 0 0 0 3.938 3.937 3.942 3.942 0 0 0 3.937-3.938V13.35a.562.562 0 1 1 1.125 0v1.688zM14.9 12.224a.562.562 0 0 1-.563-.563v-1.125c0-.924.406-3.937 5.625-3.937 5.22 0 5.625 3.013 5.625 3.938v1.124a.562.562 0 0 1-.562.563c-3.17 0-4.88-.423-6.7-.987-.191.1-.354.194-.504.279-.816.465-1.316.708-2.921.708zm.563-1.688v.55c.926-.048 1.247-.231 1.801-.548.134-.076.285-.16.448-.247v-.88a.562.562 0 1 1 1.125 0v.805c1.594.488 3.061.835 5.625.878v-.558c0-1.787-1.64-2.812-4.5-2.812-2.86 0-4.5 1.025-4.5 2.813zm6.54 6.626c-.572.46-1.306.69-2.04.69-.735 0-1.469-.23-2.04-.69a.563.563 0 0 1 .705-.876c.723.582 1.946.582 2.67 0a.562.562 0 1 1 .705.876zM20 40C8.954 40 0 31.046 0 20S8.954 0 20 0s20 8.954 20 20-8.954 20-20 20zm0-.976c10.507 0 19.024-8.517 19.024-19.024C39.024 9.493 30.507.976 20 .976 9.493.976.976 9.493.976 20 .976 30.507 9.493 39.024 20 39.024z"/>
    </defs>
    <g fill="none" fill-rule="evenodd">
        <mask id="b" fill="#fff">
            <use xlink:href="#a"/>
        </mask>
        <use fill="#004A7F" fill-rule="nonzero" xlink:href="#a"/>
        <g fill="#004A7F" mask="url(#b)">
            <path d="M0 0h40v40H0z"/>
        </g>
    </g>
</svg>
